<svg xmlns="http://www.w3.org/2000/svg" xml:space="preserve" id="Layer_2_1_" x="0" y="0" style="enable-background:new 0 0 800 800.4" version="1.1" viewBox="0 0 800 800.4">
  <style>
    .st0{fill:none;stroke:#fff;stroke-width:2;stroke-miterlimit:10}.st8{fill:#eee}.st9{fill:#fff}.st10{fill:#d1e9f5}.st11{fill:#b1c8fd}.st12{fill:#3f3f3f}.st13{fill:#e8e8e8}.st15{fill:#b2c9fe}.st17{fill:#546cf5}.st19{fill:#7b70ff}.st20{fill:#79bbfc}.st21{fill:#83d1fd}.st24{fill:#def0fd}.st25{opacity:.5;fill:#5559f7;enable-background:new}.st26{fill:#aed9fd}.st27{fill:#111470}.st28{fill:#ff768d}.st29{fill:#5559f7}.st30{fill:none}.st31{enable-background:new}.st32{fill:#86d2fd}.st33{fill:#99d9fe}.st34{fill:#b0e1fe}.st38{opacity:.2;fill:#ff335a;enable-background:new}.st39{fill:#b8cf00}.st42{fill:#829ee8}.st43{fill:#ffd179}.st52{opacity:.33;fill:#e9e9f2;enable-background:new}.st55{fill:#fab3dc}.st56{fill:#d9d7f2}
  </style>
  <g id="lines_1_">
    <path d="M714.7 384.6v-2" class="st0"/>
    <path d="M714.7 374.9v-8.7" style="fill:none;stroke:#fff;stroke-width:2;stroke-miterlimit:10;stroke-dasharray:3.8701,9.6753"/>
    <path d="M714.7 361.3V14" style="fill:none;stroke:#fff;stroke-width:2;stroke-miterlimit:10;stroke-dasharray:3.8701,7.7402,3.8701,9.6753"/>
    <path d="M714.7 9.2v-2h-2" class="st0"/>
    <path d="M705 7.2h-8.7" style="fill:none;stroke:#fff;stroke-width:2;stroke-miterlimit:10;stroke-dasharray:3.8409,9.6022"/>
    <path d="M691.5 7.2h-145" style="fill:none;stroke:#fff;stroke-width:2;stroke-miterlimit:10;stroke-dasharray:3.8409,7.6818,3.8409,9.6022"/>
    <path d="M541.7 7.2h-2v2" class="st0"/>
    <path d="M539.7 18v9.9" style="fill:none;stroke:#fff;stroke-width:2;stroke-miterlimit:10;stroke-dasharray:4.4212,11.053"/>
    <path d="M539.7 33.5v80.7" style="fill:none;stroke:#fff;stroke-width:2;stroke-miterlimit:10;stroke-dasharray:4.4212,8.8424,4.4212,11.053"/>
    <path d="M539.7 119.7v2" class="st0"/>
    <path d="M489.6 81.7h49.3M395 41.3h143.9" style="stroke-dasharray:4,8,4,10;fill:none;stroke:#fff;stroke-width:2;stroke-miterlimit:10"/>
    <path d="M719.6 6.9c-.7 1.3-2.8 2.1-5.4 2.2-3.1 0-5.6-1.3-5.6-3v2.2c0 1.7 2.5 3 5.6 3 2.5 0 4.6-.9 5.4-2.1v-.1c.1-.1.1-.2.2-.4V6.5c-.1.2-.1.3-.2.4z" class="st8"/>
    <ellipse cx="714.3" cy="6" class="st9" rx="5.6" ry="3"/>
    <path d="M545.6 7.9c-.7 1.3-2.8 2.1-5.4 2.2-3.1 0-5.6-1.3-5.6-3v2.2c0 1.7 2.5 3 5.6 3 2.5 0 4.6-.9 5.4-2.1v-.1c.1-.1.1-.2.2-.4V7.5c-.1.2-.1.3-.2.4z" class="st8"/>
    <ellipse cx="540.3" cy="7" class="st9" rx="5.6" ry="3"/>
    <path d="M544.6 41.9c-.7 1.3-2.8 2.1-5.4 2.2-3.1 0-5.6-1.3-5.6-3v2.2c0 1.7 2.5 3 5.6 3 2.5 0 4.6-.9 5.4-2.1v-.1c.1-.1.1-.2.2-.4v-2.2c-.1.2-.1.3-.2.4z" class="st8"/>
    <ellipse cx="539.3" cy="41" class="st9" rx="5.6" ry="3"/>
    <path d="M544.6 81.9c-.7 1.3-2.8 2.1-5.4 2.2-3.1 0-5.6-1.3-5.6-3v2.2c0 1.7 2.5 3 5.6 3 2.5 0 4.6-.9 5.4-2.1v-.1c.1-.1.1-.2.2-.4v-2.2c-.1.2-.1.3-.2.4z" class="st8"/>
    <ellipse cx="539.3" cy="81" class="st9" rx="5.6" ry="3"/>
  </g>
  <g id="lp">
    <path d="M576.9 373.6 373.2 267.7c-5.5-3.2-12.2-3.2-17.7 0L28.4 456.6a8.64 8.64 0 0 0 0 15l198.7 115.8c10.2 5.9 22.9 5.9 33.1 0L576 405.1c9.5-5.7 13.7-21.9.9-31.5z" class="st10"/>
    <path d="m24 452 .1 12.7 7.5 5.6z" class="st10"/>
    <path d="M575.9 373 373.2 256c-5.5-3.2-12.2-3.2-17.7 0L28.4 444.8a8.64 8.64 0 0 0 0 15l198.7 115.8c10.2 5.9 22.9 5.9 33.1 0L576 393.3a11.7 11.7 0 0 0-.1-20.3z" class="st9"/>
    <path d="M483.9 331.6 160.1 518.5c-3 1.7-6.7 1.7-9.7 0L60 466.3c-3.2-1.9-3.2-6.6 0-8.4L383.7 271c3-1.7 6.7-1.7 9.7 0l90.4 52.2c3.3 1.8 3.3 6.5.1 8.4z" class="st11"/>
    <path d="m91.6 457.7-14.9 8.6c-.5.3-1.3.2-1.9-.1l-4.5-2.6c-.6-.3-.8-1.3-.3-1.6l15.1-8.1c.5-.3 1.3-.2 1.9.1l4.5 2.1c.5.3.6 1.3.1 1.6z" class="st12"/>
    <path d="m91.5 457.2-14.9 8.6c-.5.3-1.3.2-1.9-.1l-4.5-2.6c-.6-.3-.6-.8-.1-1.1l14.9-8.6c.5-.3 1.3-.2 1.9.1l4.5 2.6c.5.3.6.8.1 1.1z" class="st13"/>
    <path d="m106.4 468.7-12.8 7.4c-.6.3-1.6.3-2.3-.1l-8.4-4.8c-.7-.4-.9-1.6-.3-2l12.9-6.8c.6-.3 1.6-.3 2.3.1l8.6 4.3c.7.5.6 1.6 0 1.9z" class="st12"/>
    <path d="m106.4 468-12.8 7.4c-.6.3-1.6.3-2.3-.1l-8.4-4.8c-.7-.4-.8-1-.2-1.3l12.8-7.4c.6-.3 1.6-.3 2.3.1l8.4 4.8c.7.3.8.9.2 1.3z" class="st13"/>
    <path d="m168.5 504.7-12.8 7.4c-.6.3-1.6.3-2.3-.1l-8.4-4.8c-.7-.4-.9-1.7-.3-2l12.9-6.7c.6-.3 1.6-.3 2.3.1l8.6 4.2c.8.3.6 1.5 0 1.9z" class="st12"/>
    <path d="m168.5 503.9-12.8 7.4c-.6.3-1.6.3-2.3-.1l-8.4-4.8c-.7-.4-.8-1-.2-1.3l12.8-7.4c.6-.3 1.6-.3 2.3.1l8.4 4.8c.7.3.8.9.2 1.3z" class="st13"/>
    <path d="m189.7 492.6-12.8 7.4c-.6.3-1.6.3-2.3-.1l-8.4-4.8c-.7-.4-1-1.8-.4-2.1l13-6.6c.6-.3 1.6-.3 2.3.1l8.4 4c.8.3.8 1.7.2 2.1z" class="st12"/>
    <path d="m189.6 491.7-12.8 7.4c-.6.3-1.6.3-2.3-.1l-8.4-4.8c-.7-.4-.8-1-.2-1.3l12.8-7.4c.6-.3 1.6-.3 2.3.1l8.4 4.8c.7.3.8.9.2 1.3z" class="st13"/>
    <path d="m210.6 480.4-12.8 7.4c-.6.3-1.6.3-2.3-.1l-8.4-4.8c-.7-.4-.9-1.8-.3-2.1l12.9-6.6c.6-.3 1.6-.3 2.3.1l8.7 4.2c.8.3.5 1.6-.1 1.9z" class="st12"/>
    <path d="m210.7 479.5-12.8 7.4c-.6.3-1.6.3-2.3-.1l-8.4-4.8c-.7-.4-.8-1-.2-1.3l12.8-7.4c.6-.3 1.6-.3 2.3.1l8.4 4.8c.7.3.8.9.2 1.3z" class="st13"/>
    <path d="m236.5 465.3-17.3 10c-.7.4-1.9.3-2.7-.1l-8-4.6c-.8-.5-1.1-1.8-.4-2.1l17.5-9.4c.7-.4 1.9-.3 2.7.1l8.1 4.1c.9.4.8 1.6.1 2z" class="st12"/>
    <path d="m236.5 464.6-17.3 10c-.7.4-1.9.3-2.7-.1l-8-4.6c-.8-.5-.9-1.2-.2-1.6l17.3-10c.7-.4 1.9-.3 2.7.1l8 4.6c.8.5.9 1.2.2 1.6z" class="st13"/>
    <path d="m360.3 394.1-114.8 66.3c-.9.5-2.4.4-3.4-.1l-7.2-4.1c-1-.6-1.4-2.2-.5-2.7L349.5 388c.9-.5 2.4-.4 3.4.1l7.3 3.3c1.1.5 1 2.2.1 2.7z" class="st12"/>
    <path d="m360.3 393.1-114.8 66.3c-.9.5-2.4.4-3.4-.1l-7.2-4.1c-1-.6-1.1-1.5-.2-2l114.8-66.3c.9-.5 2.4-.4 3.4.1l7.2 4.1c1 .6 1.1 1.5.2 2z" class="st13"/>
    <path d="m153.7 477.4-28.5 16.5c-.9.5-2.4.4-3.4-.1l-7.2-4.2c-1-.6-1.5-2-.6-2.5l28.9-15.9c.9-.5 2.4-.4 3.4.1l7.4 3.5c1 .6.9 2.1 0 2.6z" class="st12"/>
    <path d="M153.6 476.6 125.1 493c-.9.5-2.4.4-3.4-.1l-7.2-4.2c-1-.6-1.1-1.5-.2-2l28.5-16.5c.9-.5 2.4-.4 3.4.1l7.2 4.2c1 .7 1.1 1.6.2 2.1z" class="st13"/>
    <path d="m175.6 482.7-34.7 20c-1 .6-2.6.5-3.7-.2l-6.9-4c-1.1-.6-1.5-2.2-.6-2.7l35-19.5c1-.6 2.6-.5 3.7.2l7 3.4c1.2.7 1.2 2.2.2 2.8z" class="st12"/>
    <path d="m175.5 481.9-34.7 20c-1 .6-2.6.5-3.7-.2l-6.9-4c-1.1-.6-1.2-1.6-.3-2.2l34.7-20c1-.6 2.6-.5 3.7.2l6.9 4c1.2.6 1.3 1.6.3 2.2z" class="st13"/>
    <path d="M134.2 470.8 109.6 485c-.8.5-2.2.4-3.2-.1l-7.5-4.3c-.9-.5-1.1-2.3-.3-2.7l24.7-13.3c.8-.5 2.2-.4 3.2.1l7.7 3.7c1 .5.8 1.9 0 2.4z" class="st12"/>
    <path d="m134.2 469.9-24.7 14.2c-.8.5-2.2.4-3.2-.1l-7.5-4.3c-.9-.5-1-1.4-.2-1.8l24.7-14.2c.8-.5 2.2-.4 3.2.1l7.5 4.3c.9.5 1 1.3.2 1.8z" class="st13"/>
    <path d="m127.5 456.5-12.8 7.4c-.6.3-1.6.3-2.3-.1L104 459c-.7-.4-1-1.5-.4-1.9l13-6.9c.6-.3 1.6-.3 2.3.1l8.4 4.3c.8.4.8 1.5.2 1.9z" class="st12"/>
    <path d="m127.5 455.8-12.8 7.4c-.6.3-1.6.3-2.3-.1l-8.4-4.8c-.7-.4-.8-1-.2-1.3l12.8-7.4c.6-.3 1.6-.3 2.3.1l8.4 4.8c.7.3.8 1 .2 1.3z" class="st13"/>
    <path d="m148.6 444.5-12.8 7.4c-.6.3-1.6.3-2.3-.1l-8.4-4.8c-.7-.4-.9-1.8-.3-2.1l12.9-6.6c.6-.3 1.6-.3 2.3.1l8.6 4.1c.7.4.6 1.7 0 2z" class="st12"/>
    <path d="m148.6 443.6-12.8 7.4c-.6.3-1.6.3-2.3-.1l-8.4-4.8c-.7-.4-.8-1-.2-1.3l12.8-7.4c.6-.3 1.6-.3 2.3.1l8.4 4.8c.7.4.8 1 .2 1.3z" class="st13"/>
    <path d="m155.7 458.3-12.8 7.4c-.6.3-1.6.3-2.3-.1l-8.4-4.8c-.7-.4-1-1.7-.4-2l13-6.7c.6-.3 1.6-.3 2.3.1l8.5 4.3c.8.3.7 1.5.1 1.8z" class="st12"/>
    <path d="m155.6 457.5-12.8 7.4c-.6.3-1.6.3-2.3-.1l-8.4-4.8c-.7-.4-.8-1-.2-1.3l12.8-7.4c.6-.3 1.6-.3 2.3.1l8.4 4.8c.8.4.8 1 .2 1.3z" class="st13"/>
    <path d="m175.2 465-12.8 7.4c-.6.3-1.6.3-2.3-.1l-8.4-4.8c-.7-.4-1-1.7-.4-2l13-6.7c.6-.3 1.6-.3 2.3.1l8.6 4.3c.7.3.6 1.5 0 1.8z" class="st12"/>
    <path d="m175.2 464.2-12.8 7.4c-.6.3-1.6.3-2.3-.1l-8.4-4.8c-.7-.4-.8-1-.2-1.3l12.8-7.4c.6-.3 1.6-.3 2.3.1l8.4 4.8c.7.4.8 1 .2 1.3z" class="st13"/>
    <path d="m197.3 470.2-12.8 7.4c-.6.3-1.6.3-2.3-.1l-8.4-4.8c-.7-.4-.9-1.6-.3-2l12.9-6.7c.6-.3 1.6-.3 2.3.1l8.6 4.2c.7.3.6 1.5 0 1.9z" class="st12"/>
    <path d="m197.3 469.3-12.8 7.4c-.6.3-1.6.3-2.3-.1l-8.4-4.8c-.7-.4-.8-1-.2-1.3l12.8-7.4c.6-.3 1.6-.3 2.3.1l8.4 4.8c.7.4.8 1 .2 1.3z" class="st13"/>
    <path d="m218.3 457.8-12.8 7.4c-.6.3-1.6.3-2.3-.1l-8.4-4.8c-.7-.4-.8-1.6-.2-1.9l12.9-6.8c.6-.3 1.6-.3 2.3.1l8.6 4.3c.7.3.5 1.5-.1 1.8z" class="st12"/>
    <path d="m218.4 457.2-12.8 7.4c-.6.3-1.6.3-2.3-.1l-8.4-4.8c-.7-.4-.8-1-.2-1.3l12.8-7.4c.6-.3 1.6-.3 2.3.1l8.4 4.8c.7.3.8.9.2 1.3z" class="st13"/>
    <path d="m239.5 445.7-12.8 7.4c-.6.3-1.6.3-2.3-.1l-8.4-4.8c-.7-.4-.9-1.6-.3-1.9l12.9-6.8c.6-.3 1.6-.3 2.3.1l8.7 4.2c.7.4.5 1.6-.1 1.9z" class="st12"/>
    <path d="m239.5 445-12.8 7.4c-.6.3-1.6.3-2.3-.1l-8.4-4.8c-.7-.4-.8-1-.2-1.3l12.8-7.4c.6-.3 1.6-.3 2.3.1l8.4 4.8c.7.3.8.9.2 1.3z" class="st13"/>
    <path d="m260.6 433.6-12.8 7.4c-.6.3-1.6.3-2.3-.1l-8.4-4.8c-.7-.4-.9-1.7-.3-2l13-6.7c.6-.3 1.6-.3 2.3.1l8.5 4.2c.7.3.6 1.5 0 1.9z" class="st12"/>
    <path d="m260.6 432.8-12.8 7.4c-.6.3-1.6.3-2.3-.1l-8.4-4.8c-.7-.4-.8-1-.2-1.3l12.8-7.4c.6-.3 1.6-.3 2.3.1l8.4 4.8c.8.3.8.9.2 1.3z" class="st13"/>
    <path d="m281.7 421.4-12.8 7.4c-.6.3-1.6.3-2.3-.1l-8.4-4.8c-.7-.4-.9-1.7-.3-2l12.9-6.7c.6-.3 1.6-.3 2.3.1l8.5 4.2c.8.3.7 1.6.1 1.9z" class="st12"/>
    <path d="M281.7 420.6 269 428c-.6.3-1.6.3-2.3-.1l-8.4-4.8c-.7-.4-.8-1-.2-1.3l12.8-7.4c.6-.3 1.6-.3 2.3.1l8.4 4.8c.7.4.7 1 .1 1.3z" class="st13"/>
    <path d="m302.8 409.3-12.8 7.4c-.6.3-1.6.3-2.3-.1l-8.4-4.8c-.7-.4-.9-1.7-.3-2.1l13-6.7c.6-.3 1.6-.3 2.3.1l8.6 4.2c.7.4.5 1.6-.1 2z" class="st12"/>
    <path d="m302.8 408.4-12.8 7.4c-.6.3-1.6.3-2.3-.1l-8.4-4.8c-.7-.4-.8-1-.2-1.3l12.8-7.4c.6-.3 1.6-.3 2.3.1l8.4 4.8c.8.4.8 1 .2 1.3z" class="st13"/>
    <path d="m323.9 397-12.8 7.4c-.6.3-1.6.3-2.3-.1l-8.4-4.8c-.7-.4-.9-1.7-.3-2l12.9-6.7c.6-.3 1.6-.3 2.3.1l8.6 4.3c.8.3.6 1.5 0 1.8z" class="st12"/>
    <path d="m323.9 396.2-12.8 7.4c-.6.3-1.6.3-2.3-.1l-8.4-4.8c-.7-.4-.8-1-.2-1.3L313 390c.6-.3 1.6-.3 2.3.1l8.4 4.8c.8.4.8 1 .2 1.3z" class="st13"/>
    <path d="m345.1 384.9-12.8 7.4c-.6.3-1.6.3-2.3-.1l-8.4-4.8c-.7-.4-1-1.8-.4-2.1l13-6.6c.6-.3 1.6-.3 2.3.1l8.5 4.2c.8.3.7 1.6.1 1.9z" class="st12"/>
    <path d="m345.1 384-12.8 7.4c-.6.3-1.6.3-2.3-.1l-8.4-4.8c-.7-.4-.8-1-.2-1.3l12.8-7.4c.6-.3 1.6-.3 2.3.1l8.4 4.8c.7.4.8 1 .2 1.3z" class="st13"/>
    <path d="m366.2 372.7-12.8 7.4c-.6.3-1.6.3-2.3-.1l-8.4-4.8c-.7-.4-1-1.7-.4-2l13-6.7c.6-.3 1.6-.3 2.3.1l8.6 4.1c.7.4.6 1.7 0 2z" class="st12"/>
    <path d="m366.2 371.9-12.8 7.4c-.6.3-1.6.3-2.3-.1l-8.4-4.8c-.7-.4-.8-1-.2-1.3l12.8-7.4c.6-.3 1.6-.3 2.3.1l8.4 4.8c.7.3.8.9.2 1.3z" class="st13"/>
    <path d="m387.1 378.6-17.8 10.3c-.7.4-1.9.4-2.7-.1l-7.9-4.6c-.8-.5-1.1-1.9-.4-2.3l18-9.5c.7-.4 1.9-.4 2.7.1l8.2 3.9c.7.4.6 1.8-.1 2.2z" class="st12"/>
    <path d="M387.1 377.7 369.2 388c-.7.4-1.9.4-2.7-.1l-7.9-4.6c-.8-.5-.9-1.2-.2-1.6l17.8-10.3c.7-.4 1.9-.4 2.7.1l7.9 4.6c.9.5 1 1.2.3 1.6z" class="st13"/>
    <path d="m387.2 360.6-12.8 7.4c-.6.3-1.6.3-2.3-.1l-8.4-4.8c-.7-.4-.9-1.7-.3-2.1l13-6.6c.6-.3 1.6-.3 2.3.1l8.5 4c.7.4.6 1.7 0 2.1z" class="st12"/>
    <path d="m387.3 359.7-12.8 7.4c-.6.3-1.6.3-2.3-.1l-8.4-4.8c-.7-.4-.8-1-.2-1.3l12.8-7.4c.6-.3 1.6-.3 2.3.1l8.4 4.8c.7.3.8.9.2 1.3z" class="st13"/>
    <path d="m408.3 366.4-12.8 7.4c-.6.3-1.6.3-2.3-.1l-8.4-4.8c-.7-.4-.9-1.8-.3-2.2l12.9-6.6c.6-.3 1.6-.3 2.3.1l8.6 4c.8.5.6 1.9 0 2.2z" class="st12"/>
    <path d="m408.3 365.5-12.8 7.4c-.6.3-1.6.3-2.3-.1l-8.4-4.8c-.7-.4-.8-1-.2-1.3l12.8-7.4c.6-.3 1.6-.3 2.3.1l8.4 4.8c.8.3.8.9.2 1.3z" class="st13"/>
    <path d="m429.6 354.1-12.8 7.4c-.6.3-1.6.3-2.3-.1l-8.4-4.8c-.7-.4-1.1-1.7-.5-2l13.1-6.7c.6-.3 1.6-.3 2.3.1l8.6 4.2c.7.4.6 1.6 0 1.9z" class="st12"/>
    <path d="m429.4 353.3-12.8 7.4c-.6.3-1.6.3-2.3-.1l-8.4-4.8c-.7-.4-.8-1-.2-1.3l12.8-7.4c.6-.3 1.6-.3 2.3.1l8.4 4.8c.8.3.8.9.2 1.3z" class="st13"/>
    <path d="m450.5 341.9-12.8 7.4c-.6.3-1.6.3-2.3-.1l-8.4-4.8c-.7-.4-.9-1.7-.3-2l13-6.7c.6-.3 1.6-.3 2.3.1l8.6 4.2c.7.3.5 1.5-.1 1.9z" class="st12"/>
    <path d="m450.5 341.1-12.8 7.4c-.6.3-1.6.3-2.3-.1l-8.4-4.8c-.7-.4-.8-1-.2-1.3l12.8-7.4c.6-.3 1.6-.3 2.3.1l8.4 4.8c.8.3.8.9.2 1.3z" class="st13"/>
    <path d="M474.1 328.3 459 337c-.6.4-1.8.3-2.5-.1l-8.2-4.7c-.7-.4-1-1.7-.4-2.1l15.3-8.1c.6-.4 1.8-.3 2.5.1l8.3 4.1c.8.5.8 1.7.1 2.1z" class="st12"/>
    <path d="m474.1 327.5-15.1 8.7c-.6.4-1.8.3-2.5-.1l-8.2-4.7c-.7-.4-.8-1.1-.2-1.5l15.1-8.7c.6-.4 1.8-.3 2.5.1l8.2 4.7c.7.5.8 1.1.2 1.5z" class="st13"/>
    <path d="m408.5 348.3-12.8 7.4c-.6.3-1.6.3-2.3-.1l-8.4-4.8c-.7-.4-1-1.7-.4-2l13.1-6.7c.6-.3 1.6-.3 2.3.1l8.6 4.2c.6.3.5 1.6-.1 1.9z" class="st12"/>
    <path d="m408.4 347.5-12.8 7.4c-.6.3-1.6.3-2.3-.1l-8.4-4.8c-.7-.4-.8-1-.2-1.3l12.8-7.4c.6-.3 1.6-.3 2.3.1l8.4 4.8c.7.3.8.9.2 1.3z" class="st13"/>
    <path d="m457.9 320-40.4 23.3c-1 .6-2.8.5-4-.2l-6.6-3.8c-1.2-.7-1.6-2.6-.5-3.2l40.6-22.4c1-.6 2.8-.5 4 .2l6.8 3c1.2.7 1.1 2.5.1 3.1z" class="st12"/>
    <path d="m457.8 318.9-40.4 23.3c-1 .6-2.8.5-4-.2l-6.6-3.8c-1.2-.7-1.3-1.7-.3-2.3l40.4-23.3c1-.6 2.8-.5 4 .2l6.6 3.8c1.2.7 1.4 1.7.3 2.3z" class="st13"/>
    <path d="m196.3 453-12.8 7.4c-.6.3-1.6.3-2.3-.1l-8.4-4.8c-.7-.4-.9-1.8-.3-2.2l12.9-6.6c.6-.3 1.6-.3 2.3.1l8.6 4.1c.7.4.6 1.7 0 2.1z" class="st12"/>
    <path d="m196.3 452-12.8 7.4c-.6.3-1.6.3-2.3-.1l-8.4-4.8c-.7-.4-.8-1-.2-1.3l12.8-7.4c.6-.3 1.6-.3 2.3.1l8.4 4.8c.7.4.8 1 .2 1.3z" class="st13"/>
    <path d="m217.3 440.7-12.8 7.4c-.6.3-1.6.3-2.3-.1l-8.4-4.8c-.7-.4-.9-1.6-.3-2l12.9-6.8c.6-.3 1.6-.3 2.3.1l8.6 4.2c.8.4.6 1.6 0 2z" class="st12"/>
    <path d="m217.4 439.9-12.8 7.4c-.6.3-1.6.3-2.3-.1l-8.4-4.8c-.7-.4-.8-1-.2-1.3l12.8-7.4c.6-.3 1.6-.3 2.3.1l8.4 4.8c.7.3.8.9.2 1.3z" class="st13"/>
    <path d="m238.5 428.5-12.8 7.4c-.6.3-1.6.3-2.3-.1L215 431c-.7-.4-.9-1.8-.3-2.1l13-6.6c.6-.3 1.6-.3 2.3.1l8.5 4c.7.4.6 1.8 0 2.1z" class="st12"/>
    <path d="m238.5 427.7-12.8 7.4c-.6.3-1.6.3-2.3-.1l-8.4-4.8c-.7-.4-.8-1-.2-1.3l12.8-7.4c.6-.3 1.6-.3 2.3.1l8.4 4.8c.7.3.8.9.2 1.3z" class="st13"/>
    <path d="m259.7 416.3-12.8 7.4c-.6.3-1.6.3-2.3-.1l-8.4-4.8c-.7-.4-1-1.6-.4-2l13-6.8c.6-.3 1.6-.3 2.3.1l8.5 4.2c.7.4.6 1.7.1 2z" class="st12"/>
    <path d="m259.6 415.5-12.8 7.4c-.6.3-1.6.3-2.3-.1l-8.4-4.8c-.7-.4-.8-1-.2-1.3l12.8-7.4c.6-.3 1.6-.3 2.3.1l8.4 4.8c.7.3.8.9.2 1.3z" class="st13"/>
    <path d="m280.7 404-12.8 7.4c-.6.3-1.6.3-2.3-.1l-8.4-4.8c-.7-.4-.9-1.6-.3-1.9l12.9-6.8c.6-.3 1.6-.3 2.3.1l8.6 4.3c.8.3.6 1.5 0 1.8z" class="st12"/>
    <path d="m280.7 403.3-12.8 7.4c-.6.3-1.6.3-2.3-.1l-8.4-4.8c-.7-.4-.8-1-.2-1.3l12.8-7.4c.6-.3 1.6-.3 2.3.1l8.4 4.8c.7.4.8 1 .2 1.3z" class="st13"/>
    <path d="m301.8 392-12.8 7.4c-.6.3-1.6.3-2.3-.1l-8.4-4.8c-.7-.4-.9-1.8-.3-2.1l12.9-6.6c.6-.3 1.6-.3 2.3.1l8.7 4.2c.7.4.5 1.6-.1 1.9z" class="st12"/>
    <path d="m301.8 391.1-12.8 7.4c-.6.3-1.6.3-2.3-.1l-8.4-4.8c-.7-.4-.8-1-.2-1.3l12.8-7.4c.6-.3 1.6-.3 2.3.1l8.4 4.8c.7.4.8 1 .2 1.3z" class="st13"/>
    <path d="m323 379.7-12.8 7.4c-.6.3-1.6.3-2.3-.1l-8.4-4.8c-.7-.4-.9-1.7-.3-2l12.9-6.7c.6-.3 1.6-.3 2.3.1l8.5 4.2c.7.3.7 1.5.1 1.9z" class="st12"/>
    <path d="m322.9 378.9-12.8 7.4c-.6.3-1.6.3-2.3-.1l-8.4-4.8c-.7-.4-.8-1-.2-1.3l12.8-7.4c.6-.3 1.6-.3 2.3.1l8.4 4.8c.8.4.8 1 .2 1.3z" class="st13"/>
    <path d="m344.1 367.5-12.8 7.4c-.6.3-1.6.3-2.3-.1l-8.4-4.8c-.7-.4-1-1.6-.4-1.9l13-6.8c.6-.3 1.6-.3 2.3.1l8.5 4.2c.7.3.7 1.6.1 1.9z" class="st12"/>
    <path d="m344 366.8-12.8 7.4c-.6.3-1.6.3-2.3-.1l-8.4-4.8c-.7-.4-.8-1-.2-1.3l12.8-7.4c.6-.3 1.6-.3 2.3.1l8.4 4.8c.8.3.8.9.2 1.3z" class="st13"/>
    <path d="m365.2 355.5-12.8 7.4c-.6.3-1.6.3-2.3-.1l-8.4-4.8c-.7-.4-1.1-1.7-.5-2.1l13.1-6.6c.6-.3 1.6-.3 2.3.1l8.5 4.1c.8.3.7 1.7.1 2z" class="st12"/>
    <path d="m365.1 354.6-12.8 7.4c-.6.3-1.6.3-2.3-.1l-8.4-4.8c-.7-.4-.8-1-.2-1.3l12.8-7.4c.6-.3 1.6-.3 2.3.1l8.4 4.8c.8.3.8.9.2 1.3z" class="st13"/>
    <path d="m386.3 343.3-12.8 7.4c-.6.3-1.6.3-2.3-.1l-8.4-4.8c-.7-.4-1-1.8-.4-2.1l13-6.6c.6-.3 1.6-.3 2.3.1l8.5 4.1c.7.2.7 1.6.1 2z" class="st12"/>
    <path d="m386.3 342.4-12.8 7.4c-.6.3-1.6.3-2.3-.1l-8.4-4.8c-.7-.4-.8-1-.2-1.3l12.8-7.4c.6-.3 1.6-.3 2.3.1l8.4 4.8c.7.3.7.9.2 1.3z" class="st13"/>
    <path d="m407.4 331.3-12.8 7.4c-.6.3-1.6.3-2.3-.1l-8.4-4.8c-.7-.4-1.1-1.9-.5-2.2l13.1-6.5c.6-.3 1.6-.3 2.3.1l8.6 4c.8.3.6 1.7 0 2.1z" class="st12"/>
    <path d="m407.4 330.2-12.8 7.4c-.6.3-1.6.3-2.3-.1l-8.4-4.8c-.7-.4-.8-1-.2-1.3l12.8-7.4c.6-.3 1.6-.3 2.3.1l8.4 4.8c.7.3.8.9.2 1.3z" class="st13"/>
    <path d="m442.8 310.8-26.6 15.3c-.8.5-2.3.4-3.3-.1l-7.3-4.2c-1-.6-1.4-2.2-.5-2.7l26.9-14.5c.8-.5 2.3-.4 3.3.1l7.7 3.6c.8.6.6 2-.2 2.5z" class="st12"/>
    <path d="m442.7 309.8-26.6 15.3c-.8.5-2.3.4-3.3-.1l-7.3-4.2c-1-.6-1.1-1.4-.2-1.9l26.6-15.3c.8-.5 2.3-.4 3.3.1l7.3 4.2c.9.6 1 1.4.2 1.9z" class="st13"/>
    <path d="m176.9 446.1-12.8 7.4c-.6.3-1.6.3-2.3-.1l-8.4-4.8c-.7-.4-1.1-1.6-.5-2l13.1-6.7c.6-.3 1.6-.3 2.3.1l8.5 4.2c.7.4.6 1.6.1 1.9z" class="st12"/>
    <path d="m176.7 445.3-12.8 7.4c-.6.3-1.6.3-2.3-.1l-8.4-4.8c-.7-.4-.8-1-.2-1.3l12.8-7.4c.6-.3 1.6-.3 2.3.1l8.4 4.8c.8.4.8 1 .2 1.3z" class="st13"/>
    <path d="m197.8 433.9-12.8 7.4c-.6.3-1.6.3-2.3-.1l-8.4-4.8c-.7-.4-.8-1.6-.2-1.9l12.9-6.8c.6-.3 1.6-.3 2.3.1l8.7 4.3c.6.3.4 1.4-.2 1.8z" class="st12"/>
    <path d="m197.8 433.1-12.8 7.4c-.6.3-1.6.3-2.3-.1l-8.4-4.8c-.7-.4-.8-1-.2-1.3l12.8-7.4c.6-.3 1.6-.3 2.3.1l8.4 4.8c.8.4.8 1 .2 1.3z" class="st13"/>
    <path d="m218.9 421.8-12.8 7.4c-.6.3-1.6.3-2.3-.1l-8.4-4.8c-.7-.4-.8-1.8-.3-2.1l12.9-6.6c.6-.3 1.6-.3 2.3.1l8.7 4.2c.8.4.5 1.6-.1 1.9z" class="st12"/>
    <path d="m218.9 421-12.8 7.4c-.6.3-1.6.3-2.3-.1l-8.4-4.8c-.7-.4-.8-1-.2-1.3l12.8-7.4c.6-.3 1.6-.3 2.3.1l8.4 4.8c.8.3.8.9.2 1.3z" class="st13"/>
    <path d="m240.1 409.6-12.8 7.4c-.6.3-1.6.3-2.3-.1l-8.4-4.8c-.7-.4-.9-1.7-.3-2l12.9-6.7c.6-.3 1.6-.3 2.3.1l8.6 4.2c.7.3.6 1.5 0 1.9z" class="st12"/>
    <path d="m240.1 408.8-12.8 7.4c-.6.3-1.6.3-2.3-.1l-8.4-4.8c-.7-.4-.8-1-.2-1.3l12.8-7.4c.6-.3 1.6-.3 2.3.1l8.4 4.8c.7.3.8.9.2 1.3z" class="st13"/>
    <path d="m261.1 397.5-12.8 7.4c-.6.3-1.6.3-2.3-.1l-8.4-4.8c-.7-.4-.9-1.8-.3-2.1l12.9-6.6c.6-.3 1.6-.3 2.3.1l8.6 4.1c.8.2.6 1.6 0 2z" class="st12"/>
    <path d="m261.2 396.6-12.8 7.4c-.6.3-1.6.3-2.3-.1l-8.4-4.8c-.7-.4-.8-1-.2-1.3l12.8-7.4c.6-.3 1.6-.3 2.3.1l8.4 4.8c.7.3.8.9.2 1.3z" class="st13"/>
    <path d="m282.4 385.1-12.8 7.4c-.6.3-1.6.3-2.3-.1l-8.4-4.8c-.7-.4-.9-1.6-.3-1.9l12.9-6.8c.6-.3 1.6-.3 2.3.1l8.4 4.2c.7.4.8 1.6.2 1.9z" class="st12"/>
    <path d="m282.3 384.4-12.8 7.4c-.6.3-1.6.3-2.3-.1l-8.4-4.8c-.7-.4-.8-1-.2-1.3l12.8-7.4c.6-.3 1.6-.3 2.3.1l8.4 4.8c.7.4.8 1 .2 1.3z" class="st13"/>
    <path d="m303.4 373-12.8 7.4c-.6.3-1.6.3-2.3-.1l-8.4-4.8c-.7-.4-.9-1.7-.4-2.1l13-6.7c.6-.3 1.6-.3 2.3.1l8.6 4.3c.8.4.6 1.6 0 1.9z" class="st12"/>
    <path d="m303.4 372.2-12.8 7.4c-.6.3-1.6.3-2.3-.1l-8.4-4.8c-.7-.4-.8-1-.2-1.3l12.8-7.4c.6-.3 1.6-.3 2.3.1l8.4 4.8c.7.4.8 1 .2 1.3z" class="st13"/>
    <path d="m324.5 360.9-12.8 7.4c-.6.3-1.6.3-2.3-.1l-8.4-4.8c-.7-.4-1-1.6-.4-2l13.1-6.7c.6-.3 1.6-.3 2.3.1l8.4 4.1c.7.2.7 1.6.1 2z" class="st12"/>
    <path d="m324.5 360-12.8 7.4c-.6.3-1.6.3-2.3-.1l-8.4-4.8c-.7-.4-.8-1-.2-1.3l12.8-7.4c.6-.3 1.6-.3 2.3.1l8.4 4.8c.7.4.8 1 .2 1.3z" class="st13"/>
    <path d="m345.6 348.7-12.8 7.4c-.6.3-1.6.3-2.3-.1l-8.4-4.8c-.7-.4-1-1.7-.4-2.1l13-6.7c.6-.3 1.6-.3 2.3.1l8.6 4.2c.8.5.6 1.7 0 2z" class="st12"/>
    <path d="m345.6 347.8-12.8 7.4c-.6.3-1.6.3-2.3-.1l-8.4-4.8c-.7-.4-.8-1-.2-1.3l12.8-7.4c.6-.3 1.6-.3 2.3.1l8.4 4.8c.7.4.8 1 .2 1.3z" class="st13"/>
    <path d="M366.7 336.6 354 344c-.6.3-1.6.3-2.3-.1l-8.4-4.8c-.7-.4-1-1.8-.4-2.1l13-6.6c.6-.3 1.6-.3 2.3.1l8.4 4c.7.3.7 1.8.1 2.1z" class="st12"/>
    <path d="m366.7 335.7-12.8 7.4c-.6.3-1.6.3-2.3-.1l-8.4-4.8c-.7-.4-.8-1-.2-1.3l12.8-7.4c.6-.3 1.6-.3 2.3.1l8.4 4.8c.7.3.8.9.2 1.3z" class="st13"/>
    <path d="m388 324.3-12.8 7.4c-.6.3-1.6.3-2.3-.1l-8.4-4.8c-.7-.4-1.2-1.6-.6-2l13.2-6.8c.6-.3 1.6-.3 2.3.1l8.4 4.2c.7.4.8 1.6.2 2z" class="st12"/>
    <path d="m387.8 323.5-12.8 7.4c-.6.3-1.6.3-2.3-.1l-8.4-4.8c-.7-.4-.8-1-.2-1.3l12.8-7.4c.6-.3 1.6-.3 2.3.1l8.4 4.8c.7.3.8.9.2 1.3z" class="st13"/>
    <path d="m427.1 301.9-30.4 17.5c-.9.5-2.5.5-3.5-.1l-7.1-4.1c-1-.6-1.3-2.5-.4-3l30.6-16.5c.9-.5 2.5-.5 3.5.1l7.4 3.2c.9.6.8 2.4-.1 2.9z" class="st12"/>
    <path d="m427 300.8-30.4 17.5c-.9.5-2.5.5-3.5-.1l-7.1-4.1c-1-.6-1.1-1.5-.3-2l30.4-17.5c.9-.5 2.5-.5 3.5.1l7.1 4.1c1.1.6 1.2 1.5.3 2z" class="st13"/>
    <path d="m169.7 432.3-12.8 7.4c-.6.3-1.6.3-2.3-.1l-8.4-4.8c-.7-.4-1-1.7-.4-2.1l13-6.6c.6-.3 1.6-.3 2.3.1l8.6 4.1c.7.3.6 1.7 0 2z" class="st12"/>
    <path d="m169.7 431.4-12.8 7.4c-.6.3-1.6.3-2.3-.1l-8.4-4.8c-.7-.4-.8-1-.2-1.3l12.8-7.4c.6-.3 1.6-.3 2.3.1l8.4 4.8c.7.4.8 1 .2 1.3z" class="st13"/>
    <path d="m190.7 420.1-12.8 7.4c-.6.3-1.6.3-2.3-.1l-8.4-4.8c-.7-.4-.8-1.7-.2-2.1l12.8-6.6c.6-.3 1.6-.3 2.3.1l8.6 4.2c.8.3.6 1.5 0 1.9z" class="st12"/>
    <path d="m190.8 419.2-12.8 7.4c-.6.3-1.6.3-2.3-.1l-8.4-4.8c-.7-.4-.8-1-.2-1.3l12.8-7.4c.6-.3 1.6-.3 2.3.1l8.4 4.8c.7.4.8 1 .2 1.3z" class="st13"/>
    <path d="m211.9 407.8-12.8 7.4c-.6.3-1.6.3-2.3-.1l-8.4-4.8c-.7-.4-.8-1.7-.2-2l12.8-6.7c.6-.3 1.6-.3 2.3.1l8.6 4.2c.7.4.5 1.6 0 1.9z" class="st12"/>
    <path d="m211.9 407.1-12.8 7.4c-.6.3-1.6.3-2.3-.1l-8.4-4.8c-.7-.4-.8-1-.2-1.3l12.8-7.4c.6-.3 1.6-.3 2.3.1l8.4 4.8c.7.3.8.9.2 1.3z" class="st13"/>
    <path d="m232.9 395.7-12.8 7.4c-.6.3-1.6.3-2.3-.1l-8.4-4.8c-.7-.4-.8-1.7-.2-2l12.8-6.7c.6-.3 1.6-.3 2.3.1l8.7 4.3c.8.3.5 1.4-.1 1.8z" class="st12"/>
    <path d="m233 394.9-12.8 7.4c-.6.3-1.6.3-2.3-.1l-8.4-4.8c-.7-.4-.8-1-.2-1.3l12.8-7.4c.6-.3 1.6-.3 2.3.1l8.4 4.8c.7.3.8.9.2 1.3z" class="st13"/>
    <path d="m254.2 383.5-12.8 7.4c-.6.3-1.6.3-2.3-.1l-8.4-4.8c-.7-.4-1-1.7-.4-2l13-6.7c.6-.3 1.6-.3 2.3.1l8.3 4.1c.8.3.9 1.6.3 2z" class="st12"/>
    <path d="m254.1 382.7-12.8 7.4c-.6.3-1.6.3-2.3-.1l-8.4-4.8c-.7-.4-.8-1-.2-1.3l12.8-7.4c.6-.3 1.6-.3 2.3.1l8.4 4.8c.7.3.8.9.2 1.3z" class="st13"/>
    <path d="m275.4 371.2-12.8 7.4c-.6.3-1.6.3-2.3-.1l-8.4-4.8c-.7-.4-.9-1.5-.3-1.9l12.9-6.9c.6-.3 1.6-.3 2.3.1l8.4 4.4c.7.4.8 1.5.2 1.8z" class="st12"/>
    <path d="m275.2 370.5-12.8 7.4c-.6.3-1.6.3-2.3-.1l-8.4-4.8c-.7-.4-.8-1-.2-1.3l12.8-7.4c.6-.3 1.6-.3 2.3.1l8.4 4.8c.7.3.8 1 .2 1.3z" class="st13"/>
    <path d="m296.4 359-12.8 7.4c-.6.3-1.6.3-2.3-.1l-8.4-4.8c-.7-.4-1-1.5-.4-1.8l13.1-6.9c.6-.3 1.6-.3 2.3.1l8.5 4.3c.7.3.6 1.5 0 1.8z" class="st12"/>
    <path d="m296.3 358.3-12.8 7.4c-.6.3-1.6.3-2.3-.1l-8.4-4.8c-.7-.4-.8-1-.2-1.3l12.8-7.4c.6-.3 1.6-.3 2.3.1l8.4 4.8c.7.4.8 1 .2 1.3z" class="st13"/>
    <path d="m317.5 346.9-12.8 7.4c-.6.3-1.6.3-2.3-.1l-8.4-4.8c-.7-.4-.8-1.6-.2-1.9l12.8-6.8c.6-.3 1.6-.3 2.3.1l8.7 4.4c.7.3.5 1.3-.1 1.7z" class="st12"/>
    <path d="m317.4 346.1-12.8 7.4c-.6.3-1.6.3-2.3-.1l-8.4-4.8c-.7-.4-.8-1-.2-1.3l12.8-7.4c.6-.3 1.6-.3 2.3.1l8.4 4.8c.7.4.8 1 .2 1.3z" class="st13"/>
    <path d="m338.5 334.7-12.8 7.4c-.6.3-1.6.3-2.3-.1l-8.4-4.8c-.7-.4-.9-1.5-.3-1.9l12.9-6.8c.6-.3 1.6-.3 2.3.1l8.5 4.2c.8.3.7 1.5.1 1.9z" class="st12"/>
    <path d="m338.5 333.9-12.8 7.4c-.6.3-1.6.3-2.3-.1l-8.4-4.8c-.7-.4-.8-1-.2-1.3l12.8-7.4c.6-.3 1.6-.3 2.3.1l8.4 4.8c.8.4.8 1 .2 1.3z" class="st13"/>
    <path d="m359.7 322.6-12.8 7.4c-.6.3-1.6.3-2.3-.1l-8.4-4.8c-.7-.4-1-1.8-.4-2.1l13-6.6c.6-.3 1.6-.3 2.3.1l8.3 3.9c.8.4.9 1.9.3 2.2z" class="st12"/>
    <path d="m359.6 321.8-12.8 7.4c-.6.3-1.6.3-2.3-.1l-8.4-4.8c-.7-.4-.8-1-.2-1.3l12.8-7.4c.6-.3 1.6-.3 2.3.1l8.4 4.8c.8.3.8.9.2 1.3z" class="st13"/>
    <path d="m411.3 292.9-42 24.2c-1 .6-2.9.5-4.1-.2l-6.5-3.7c-1.2-.7-1.6-2.5-.6-3.1l42.3-23.5c1-.6 2.9-.5 4.1.2l6.5 3c1.2.7 1.3 2.5.3 3.1z" class="st12"/>
    <path d="m411.2 292-42 24.2c-1 .6-2.9.5-4.1-.2l-6.5-3.7c-1.2-.7-1.3-1.8-.3-2.4l42-24.2c1-.6 2.9-.5 4.1.2l6.5 3.7c1.2.7 1.3 1.8.3 2.4z" class="st13"/>
    <path d="m116.8 443.1-14.9 8.6c-.5.3-1.3.2-1.9-.1l-4.5-2.6c-.6-.3-.7-1.3-.2-1.6l15-8.1c.5-.3 1.3-.2 1.9.1l4.6 2.1c.7.4.5 1.3 0 1.6z" class="st12"/>
    <path d="m116.8 442.5-14.9 8.6c-.5.3-1.3.2-1.9-.1l-4.5-2.6c-.6-.3-.6-.8-.1-1.1l14.9-8.6c.5-.3 1.3-.2 1.9.1l4.5 2.6c.6.4.6.8.1 1.1z" class="st13"/>
    <path d="m142.2 428.4-14.9 8.6c-.5.3-1.3.2-1.9-.1l-4.5-2.6c-.6-.3-.8-1.3-.3-1.5l15.1-8.2c.5-.3 1.3-.2 1.9.1l4.5 2.2c.6.3.6 1.3.1 1.5z" class="st12"/>
    <path d="m142.2 427.9-14.9 8.6c-.5.3-1.3.2-1.9-.1l-4.4-2.6c-.6-.3-.6-.8-.1-1.1l14.9-8.6c.5-.3 1.3-.2 1.9.1l4.5 2.6c.4.3.5.8 0 1.1z" class="st13"/>
    <path d="m167.5 413.9-14.9 8.6c-.5.3-1.3.2-1.9-.1l-4.5-2.6c-.6-.3-.8-1.3-.3-1.6l15.1-8.1c.5-.3 1.3-.2 1.9.1l4.5 2.1c.6.3.6 1.3.1 1.6z" class="st12"/>
    <path d="m167.5 413.3-14.9 8.6c-.5.3-1.3.2-1.9-.1l-4.5-2.6c-.6-.3-.6-.8-.1-1.1l14.9-8.6c.5-.3 1.3-.2 1.9.1l4.5 2.6c.5.3.6.8.1 1.1z" class="st13"/>
    <path d="m192.9 399.3-14.9 8.6c-.5.3-1.3.2-1.9-.1l-4.5-2.6c-.6-.3-.8-1.3-.3-1.6l15.1-8.1c.5-.3 1.3-.2 1.9.1l4.5 2.1c.6.3.6 1.3.1 1.6z" class="st12"/>
    <path d="m192.8 398.7-14.9 8.6c-.5.3-1.3.2-1.9-.1l-4.5-2.6c-.6-.3-.6-.8-.1-1.1l14.9-8.6c.5-.3 1.3-.2 1.9.1l4.4 2.6c.7.3.7.8.2 1.1z" class="st13"/>
    <path d="m218.1 384.8-14.9 8.6c-.5.3-1.3.2-1.9-.1l-4.5-2.6c-.6-.3-.7-1.5-.2-1.8l15-8c.5-.3 1.3-.2 1.9.1l4.6 2c.6.4.5 1.5 0 1.8z" class="st12"/>
    <path d="m218.2 384-14.9 8.6c-.5.3-1.3.2-1.9-.1l-4.5-2.6c-.6-.3-.6-.8-.1-1.1l14.9-8.6c.5-.3 1.3-.2 1.9.1l4.5 2.6c.5.4.5.9.1 1.1z" class="st13"/>
    <path d="m243.5 370.2-14.9 8.6c-.5.3-1.3.2-1.9-.1l-4.4-2.6c-.6-.3-.7-1.5-.2-1.8l15-7.9c.5-.3 1.3-.2 1.9.1l4.6 1.9c.4.4.4 1.5-.1 1.8z" class="st12"/>
    <path d="m243.5 369.4-14.9 8.6c-.5.3-1.3.2-1.9-.1l-4.4-2.6c-.6-.3-.6-.8-.1-1.1l14.9-8.6c.5-.3 1.3-.2 1.9.1l4.5 2.6c.4.3.5.8 0 1.1z" class="st13"/>
    <path d="m268.8 355.7-14.9 8.6c-.5.3-1.3.2-1.9-.1l-4.5-2.6c-.6-.3-.7-1.6-.2-1.9l15-7.8c.5-.3 1.3-.2 1.9.1l4.7 1.8c.5.4.3 1.6-.1 1.9z" class="st12"/>
    <path d="m268.8 354.8-14.9 8.6c-.5.3-1.3.2-1.9-.1l-4.5-2.6c-.6-.3-.6-.8-.1-1.1l14.9-8.6c.5-.3 1.3-.2 1.9.1l4.5 2.6c.5.3.6.8.1 1.1z" class="st13"/>
    <path d="m294.2 340.8-14.9 8.6c-.5.3-1.3.2-1.9-.1l-4.5-2.6c-.6-.3-.8-1.4-.3-1.7l15.1-8.1c.5-.3 1.3-.2 1.9.1l4.6 2.1c.5.4.5 1.4 0 1.7z" class="st12"/>
    <path d="m294.1 340.2-14.9 8.6c-.5.3-1.3.2-1.9-.1l-4.5-2.6c-.6-.3-.6-.8-.1-1.1l14.9-8.6c.5-.3 1.3-.2 1.9.1l4.5 2.6c.6.3.6.8.1 1.1z" class="st13"/>
    <path d="m319.5 326.2-14.9 8.6c-.5.3-1.3.2-1.9-.1l-4.4-2.6c-.6-.3-.7-1.3-.2-1.6l15-8.1c.5-.3 1.3-.2 1.9.1l4.5 2c.5.4.5 1.4 0 1.7z" class="st12"/>
    <path d="m319.5 325.5-14.9 8.6c-.5.3-1.3.2-1.9-.1l-4.5-2.6c-.6-.3-.6-.8-.1-1.1l14.9-8.6c.5-.3 1.3-.2 1.9.1l4.4 2.6c.6.4.7.9.2 1.1z" class="st13"/>
    <path d="m344.8 311.6-14.9 8.6c-.5.3-1.3.2-1.9-.1l-4.4-2.6c-.6-.3-.7-1.4-.2-1.7l15-8.1c.5-.3 1.3-.2 1.9.1l4.6 2.1c.5.4.4 1.4-.1 1.7z" class="st12"/>
    <path d="m344.8 310.9-14.9 8.6c-.5.3-1.3.2-1.9-.1l-4.5-2.6c-.6-.3-.6-.8-.1-1.1l14.9-8.6c.5-.3 1.3-.2 1.9.1l4.5 2.6c.5.3.6.8.1 1.1z" class="st13"/>
    <path d="m370.2 297.1-14.9 8.6c-.5.3-1.3.2-1.9-.1l-4.5-2.6c-.6-.3-.9-1.4-.4-1.6l15.2-8.1c.5-.3 1.3-.2 1.9.1l4.5 2c.7.3.6 1.4.1 1.7z" class="st12"/>
    <path d="m370.1 296.3-14.9 8.6c-.5.3-1.3.2-1.9-.1l-4.5-2.6c-.6-.3-.6-.8-.1-1.1l14.9-8.6c.5-.3 1.3-.2 1.9.1l4.5 2.6c.5.3.6.8.1 1.1z" class="st13"/>
    <path d="m395.4 282.5-14.9 8.6c-.5.3-1.3.2-1.9-.1l-4.5-2.6c-.6-.3-.7-1.5-.2-1.8l15.1-8c.5-.3 1.3-.2 1.9.1l4.6 2c.6.4.4 1.5-.1 1.8z" class="st12"/>
    <path d="m395.4 281.7-14.9 8.6c-.5.3-1.3.2-1.9-.1l-4.5-2.6c-.6-.3-.6-.8-.1-1.1l14.9-8.6c.5-.3 1.3-.2 1.9.1l4.5 2.6c.6.3.6.8.1 1.1z" class="st13"/>
    <path d="M293.4 455.3c-5.5 3.2-5.5 8.3-.1 11.5l53.8 31.3c5.4 3.2 14.3 3.1 19.7 0l80.9-46.7c5.5-3.2 5.5-8.3.1-11.4L394 408.7c-5.4-3.2-14.3-3.2-19.8 0l-80.8 46.6z" class="st11"/>
    <path d="m353.4 232.8 10.3-211C363.3 4.1 341-1.6 331 4.2L20.3 183.6A31.66 31.66 0 0 0 4.5 211v214.9c0 21 16.4 27.3 27.7 19.7l310.4-193.9c6.7-3.9 10.8-11.1 10.8-18.9z" class="st10"/>
    <path d="M363.7 238.9V23.2a14.9 14.9 0 0 0-22.4-12.9L30.6 189.6A31.66 31.66 0 0 0 14.8 217v215c0 9.3 10.1 15.1 18.2 10.5l319.9-184.7c6.7-4 10.8-11.1 10.8-18.9z" style="fill:#f7f5f7"/>
    <path d="M354.5 238.2V33.9c0-10.9-11.8-17.7-21.2-12.2L39 191.6c-9.3 5.4-15 15.3-15 26V421c0 8.8 9.6 14.3 17.2 9.9l303-174.9c6.4-3.6 10.3-10.4 10.3-17.8z" class="st15"/>
  </g>
  <g id="Slides">
    <g style="opacity:.65">
      <path d="M394.9 22 60.8 214.9l.7 237 334-192.9z" class="st9"/>
      <path d="M394.9 22 60.8 214.9v32.4L395 54.3z" class="st17"/>
      <path d="m56.2 212.2.7 237 4.6 2.7-.7-237z" class="st9"/>
      <path d="m394.9 22-4.6-2.7L56.2 212.2l4.6 2.7z" class="st9"/>
      <path d="m247.5 162.5 82.4 76.1 10.4-28.2L350 224l12.4-63 33.1 98-334 192.9 39.3-188.6 34.3 74.2 27.9-48.8 20.1 7.5z" style="fill:#5accf4"/>
      <path d="m279.2 306.4 64.4-61.8 51.9 14.4-334 192.9 107.1-172.3z" class="st19"/>
      <path d="M373.4 84.7v3.8l-24.9 14.6v-3.8zm0 7.5V96l-24.9 14.6v-3.8zm0 7.5v3.8l-24.9 14.6v-3.7zm0 7.5v3.8l-24.9 14.7v-3.8zm0 7.5v3.8l-24.9 14.7v-3.8z" class="st20"/>
      <path d="M378.6 47.7c0 3-2.1 6.8-4.8 8.3-2.7 1.5-4.8.3-4.8-2.7s2.1-6.7 4.8-8.3c2.7-1.6 4.8-.3 4.8 2.7z" class="st21"/>
      <path d="M361.7 57.7c0 3-2.1 6.8-4.8 8.3-2.7 1.5-4.8.3-4.8-2.8 0-3 2.1-6.7 4.8-8.3 2.7-1.4 4.8-.2 4.8 2.8z" class="st20"/>
      <path d="M334.4 73.8c0-3 2.1-6.7 4.8-8.3 2.7-1.5 4.8-.3 4.8 2.7s-2.1 6.8-4.8 8.3c-2.6 1.6-4.8.3-4.8-2.7z" style="fill:#ffd95b"/>
    </g>
    <g style="opacity:.7">
      <path d="M487.9 47.4 139.4 248.6l.7 247.3 348.5-201.3z" class="st9"/>
      <path d="M340.1 199.7 462 129.3l.5 150.4-122.4 70.6z" class="st24"/>
      <path d="M487.9 47.4 139.4 248.6v33.8L488 81.2z" class="st17"/>
      <path d="m134.6 245.9.7 247.2 4.8 2.8-.7-247.3z" class="st25"/>
      <path d="m487.9 47.4-4.8-2.8-348.5 201.3 4.8 2.7z" class="st25"/>
      <path d="M231.2 271.8v8.8l-57.9 34.1-.1-8.9z" class="st24"/>
      <path d="M165.8 310.2c2.1-1.2 3.8-.3 3.8 2.2 0 2.4-1.7 5.4-3.8 6.6-2.1 1.2-3.8.2-3.8-2.2s1.6-5.3 3.8-6.6z" class="st20"/>
      <path d="M316.7 222.9v8.8l-57.9 34-.1-8.8z" class="st24"/>
      <path d="M251.3 261.3c2.1-1.2 3.8-.3 3.8 2.2 0 2.4-1.7 5.4-3.8 6.6-2.1 1.2-3.8.2-3.8-2.2 0-2.4 1.7-5.4 3.8-6.6z" class="st19"/>
      <path d="M231.2 293.8v8.8l-57.9 34.1-.1-8.8z" class="st24"/>
      <path d="M165.8 332.3c2.1-1.2 3.8-.3 3.8 2.2 0 2.4-1.7 5.4-3.8 6.6-2.1 1.2-3.8.2-3.8-2.2 0-2.5 1.6-5.4 3.8-6.6z" class="st20"/>
      <path d="M316.7 244.9v8.8l-57.9 34-.1-8.8z" class="st24"/>
      <path d="M251.3 283.3c2.1-1.2 3.8-.3 3.8 2.2 0 2.4-1.7 5.4-3.8 6.6-2.1 1.2-3.8.2-3.8-2.2 0-2.4 1.7-5.4 3.8-6.6z" class="st19"/>
      <path d="M231.2 315.8v8.8l-57.9 34.1-.1-8.8z" class="st24"/>
      <path d="M165.8 354.3c2.1-1.2 3.8-.3 3.8 2.2 0 2.4-1.7 5.4-3.8 6.6-2.1 1.2-3.8.2-3.8-2.2 0-2.5 1.6-5.4 3.8-6.6z" class="st20"/>
      <path d="M316.7 266.9v8.8l-57.9 34-.1-8.8z" class="st24"/>
      <path d="M251.3 305.3c2.1-1.2 3.8-.3 3.8 2.2 0 2.4-1.7 5.4-3.8 6.6-2.1 1.2-3.8.2-3.8-2.2 0-2.4 1.7-5.3 3.8-6.6z" class="st19"/>
      <path d="M231.2 352.8v8.8l-57.9 34-.1-8.8z" class="st24"/>
      <path d="M165.8 391.2c2.1-1.2 3.8-.3 3.8 2.2 0 2.4-1.7 5.4-3.8 6.6-2.1 1.2-3.8.2-3.8-2.2s1.6-5.3 3.8-6.6z" class="st26"/>
      <path d="M316.7 303.8v8.8l-57.9 34.1-.1-8.8z" class="st24"/>
      <path d="M251.3 342.3c2.1-1.2 3.8-.3 3.8 2.2 0 2.4-1.7 5.4-3.8 6.6-2.1 1.2-3.8.2-3.8-2.2 0-2.5 1.7-5.4 3.8-6.6z" class="st27"/>
      <path d="M231.2 374.8v8.8l-57.9 34-.1-8.8z" class="st24"/>
      <path d="M165.8 413.2c2.1-1.2 3.8-.3 3.8 2.2 0 2.4-1.7 5.4-3.8 6.6-2.1 1.2-3.8.2-3.8-2.2s1.6-5.3 3.8-6.6z" class="st26"/>
      <path d="M316.7 325.8v8.9l-57.9 34-.1-8.8z" class="st24"/>
      <path d="M251.3 364.3c2.1-1.2 3.8-.3 3.8 2.2 0 2.4-1.7 5.4-3.8 6.6-2.1 1.2-3.8.2-3.8-2.2 0-2.4 1.7-5.4 3.8-6.6z" class="st27"/>
      <path d="M231.2 396.8v8.8l-57.9 34-.1-8.8z" class="st24"/>
      <path d="M165.8 435.2c2.1-1.2 3.8-.3 3.8 2.2 0 2.4-1.7 5.4-3.8 6.6-2.1 1.2-3.8.2-3.8-2.2s1.6-5.3 3.8-6.6z" class="st26"/>
      <path d="M316.7 347.9v8.8l-57.9 34-.1-8.8z" class="st24"/>
      <path d="M251.3 386.3c2.1-1.2 3.8-.3 3.8 2.2 0 2.4-1.7 5.4-3.8 6.6-2.1 1.2-3.8.2-3.8-2.2 0-2.4 1.7-5.4 3.8-6.6z" class="st27"/>
      <path d="M208.4 225.3c0 3.9-2.7 8.7-6.2 10.7-3.4 2-6.2.4-6.2-3.5s2.7-8.7 6.2-10.6c3.4-2.1 6.2-.5 6.2 3.4z" class="st21"/>
      <path d="M186.7 238.2c0 3.9-2.7 8.7-6.2 10.7-3.4 2-6.2.4-6.2-3.5s2.7-8.7 6.1-10.6c3.5-2.1 6.3-.5 6.3 3.4z" class="st9"/>
      <path d="M151.6 258.9c0-3.9 2.7-8.7 6.1-10.6 3.4-2 6.2-.4 6.2 3.5s-2.7 8.7-6.2 10.7c-3.4 1.9-6.1.3-6.1-3.6z" class="st28"/>
      <path d="m448.6 201.3 3.5-2 64.5-37.2c3.8-2.2 6.9-.5 6.9 3.9l.1 40.4c0 4.4-3.1 9.7-6.9 11.9l-53.5 30.9c-4.5 12-12.7 19.9-12.7 19.9s4-9.9 4.3-15.1l-6.2 3.6c-3.8 2.2-6.9.5-6.9-3.9v-2.1l-.1-38.3c.1-4.4 3.1-9.8 7-12z" class="st19"/>
      <path d="m451.7 230.7 61.9-35.7c.6-.3 1-.1 1 .6s-.5 1.5-1 1.8l-61.9 35.7c-.6.3-1 .1-1-.6s.5-1.4 1-1.8z" class="st29"/>
      <path d="m451.8 239.8 61.9-35.7c.6-.3 1-.1 1 .6s-.5 1.5-1 1.8l-61.9 35.7c-.6.3-1 .1-1-.6-.1-.7.4-1.5 1-1.8z" class="st9"/>
      <path d="m451.7 221.7 61.9-35.7c.6-.3 1 0 1 .6 0 .7-.5 1.5-1 1.8l-61.9 35.7c-.6.3-1 .1-1-.6s.4-1.5 1-1.8z" class="st29"/>
      <path d="m451.7 212.6 61.9-35.7c.6-.3 1 0 1 .6 0 .7-.5 1.5-1 1.8L451.7 215c-.6.3-1 .1-1-.6 0-.6.4-1.4 1-1.8z" class="st9"/>
      <path d="m451.7 215 61.9-35.7" class="st30"/>
      <path d="m513.6 186-61.9 35.7c-.6.3-1 1.2-1 1.8 0 .7.5.9 1 .6l61.9-35.7c.6-.3 1-1.1 1-1.8s-.5-.9-1-.6zm0 9-61.9 35.7c-.6.3-1 1.1-1 1.8s.5.9 1 .6l61.9-35.7c.6-.3 1-1.1 1-1.8 0-.6-.4-.9-1-.6z" class="st9"/>
      <path d="m451.8 242.2 61.8-35.7" class="st30"/>
      <path d="m359.6 238.4 3.5-2 64.5-37.2c3.8-2.2 6.9-.5 6.9 3.9l.1 40.4c0 4.4-3.1 9.7-6.9 11.9l-53.5 30.9c-4.5 12-12.7 19.9-12.7 19.9s4-9.9 4.3-15.1l-6.2 3.6c-3.8 2.2-6.9.5-6.9-3.9v-2.1l-.1-38.3c.1-4.5 3.2-9.8 7-12z" class="st9"/>
      <path d="m362.8 267.8 61.9-35.7c.6-.3 1-.1 1 .6s-.5 1.5-1 1.8l-61.9 35.7c-.6.3-1 .1-1-.6-.1-.7.4-1.4 1-1.8z" class="st29"/>
      <path d="m362.8 276.9 61.9-35.7c.6-.3 1-.1 1 .6s-.5 1.5-1 1.8l-61.9 35.7c-.6.3-1 .1-1-.6s.4-1.5 1-1.8z" class="st19"/>
      <path d="m362.8 258.8 61.9-35.7c.6-.3 1 0 1 .6 0 .7-.5 1.5-1 1.8l-61.9 35.7c-.6.3-1 .1-1-.6-.1-.7.4-1.5 1-1.8z" class="st29"/>
      <path d="m362.7 249.7 61.9-35.7c.6-.3 1 0 1 .6 0 .7-.5 1.5-1 1.8l-61.9 35.7c-.6.3-1 .1-1-.6 0-.6.5-1.5 1-1.8z" class="st19"/>
      <path d="m362.7 252.1 61.9-35.7" class="st30"/>
      <path d="m424.6 223.1-61.9 35.7c-.6.3-1 1.2-1 1.8 0 .7.5.9 1 .6l61.9-35.7c.6-.3 1-1.1 1-1.8s-.4-1-1-.6zm0 9-61.9 35.7c-.6.3-1 1.1-1 1.8s.5.9 1 .6l61.9-35.7c.6-.3 1-1.1 1-1.8.1-.7-.4-.9-1-.6z" class="st19"/>
      <path d="m362.8 279.2 61.9-35.7" class="st30"/>
    </g>
    <path d="M570.9 98.9 250.4 284l.7 227.3 320.4-185z" class="st9"/>
    <path d="M570.9 98.9 250.4 284v31L571 130z" class="st17"/>
    <path d="m246 281.4.6 227.3 4.5 2.6-.7-227.3z" class="st20"/>
    <path d="m570.9 98.9-4.5-2.5-320.4 185 4.4 2.6zM322.3 427.7v18.4l16-9.3-.1-18.3z" class="st20"/>
    <g class="st31">
      <path d="M322.2 404.4v18.4l16-9.3v-18.3z" class="st20"/>
    </g>
    <g class="st31">
      <path d="m322.1 381.1.1 18.4 16-9.3-.1-18.3z" class="st20"/>
    </g>
    <g class="st31">
      <path d="M322.1 357.8v18.4l16-9.2-.1-18.4z" class="st20"/>
    </g>
    <g class="st31">
      <path d="M322 334.5v18.4l16-9.2v-18.4z" class="st20"/>
    </g>
    <g class="st31">
      <path d="m321.9 311.6.1 18.4 16-9.3-.1-18.3z" class="st20"/>
    </g>
    <path d="M321.9 288.3v18.4l16-9.3-.1-18.3z" class="st24"/>
    <path d="m297.2 442.5.1 18.4 16-9.3-.1-18.3z" class="st32"/>
    <g class="st31">
      <path d="m297.1 419.2.1 18.4 16-9.3-.1-18.3z" class="st21"/>
    </g>
    <g class="st31">
      <path d="M297.1 395.9v18.4l16-9.3v-18.3z" class="st33"/>
    </g>
    <g class="st31">
      <path d="m297 372.6.1 18.4 16-9.2-.1-18.4z" class="st34"/>
    </g>
    <path d="M297 349.3v18.4l16-9.2-.1-18.4zm-.1-23.3v18.4l16-9.2v-18.4z" class="st24"/>
    <g class="st31">
      <path d="m296.8 302.8.1 18.3 16-9.2-.1-18.4z" class="st24"/>
    </g>
    <path d="M272.2 456.9v18.4l16-9.2v-18.4zm-.1-23.2.1 18.3 15.9-9.2v-18.4zm-.1-23.3.1 18.3 16-9.2-.1-18.4z" class="st19"/>
    <path d="M272 387.1v18.3l16-9.2v-18.3zm-.1-23.3.1 18.4 15.9-9.3v-18.3zm-.1-23.3.1 18.4 16-9.3-.1-18.3z" class="st24"/>
    <g class="st31">
      <path d="M271.8 317.2v18.4l16-9.3V308z" class="st24"/>
    </g>
    <path d="M536.5 300.4v18.4l16-9.3v-18.3z" style="fill:#bc334c"/>
    <g class="st31">
      <path d="m536.4 277.1.1 18.4 16-9.3-.1-18.3z" class="st28"/>
    </g>
    <path d="M536.4 253.8v18.4l16-9.3-.1-18.3z" class="st31" style="opacity:.5;fill:#ff335a;enable-background:new"/>
    <path d="M536.3 230.5v18.4l16-9.3v-18.3z" class="st31" style="opacity:.35;fill:#ff335a;enable-background:new"/>
    <g class="st31">
      <path d="m536.2 207.2.1 18.4 16-9.2-.1-18.4z" class="st38"/>
    </g>
    <g class="st31">
      <path d="M536.2 184.3v18.3l16-9.2-.1-18.3z" class="st38"/>
    </g>
    <g class="st31">
      <path d="M536.1 161v18.4l16-9.3v-18.3z" class="st9"/>
    </g>
    <path d="M511.5 315.2v18.4l16-9.3-.1-18.3z" class="st32"/>
    <g class="st31">
      <path d="M511.4 291.9v18.4l16-9.3v-18.3z" class="st21"/>
    </g>
    <g class="st31">
      <path d="m511.3 268.6.1 18.4 16-9.3-.1-18.3z" class="st33"/>
    </g>
    <g class="st31">
      <path d="M511.3 245.3v18.4l16-9.3-.1-18.3z" class="st34"/>
    </g>
    <path d="M511.2 222v18.4l16-9.2v-18.4zm-.1-23.3.1 18.4 16-9.2-.1-18.4z" class="st24"/>
    <g class="st31">
      <path d="M511.1 175.4v18.4l16-9.2-.1-18.4z" class="st9"/>
    </g>
    <path d="m486.4 329.6.1 18.4 15.9-9.2v-18.4zm-.1-23.3.1 18.4 16-9.2-.1-18.4zm0-23.2v18.3l16-9.2v-18.4z" class="st19"/>
    <path d="m486.2 259.8.1 18.3 15.9-9.2v-18.4zm0-23.3v18.3l16-9.2-.1-18.3zm-.1-23.3v18.4l16-9.3V204z" class="st24"/>
    <g class="st31">
      <path d="m486 189.9.1 18.4L502 199v-18.3z" class="st9"/>
    </g>
    <path d="m409 244.7-.4.2c-23.5 13.5-42.4 46.4-42.4 73.4.1 26.9 19 37.8 42.4 24.4l.2-.1h.1c23.5-13.6 42.4-46.4 42.4-73.4-.1-26.7-19-37.6-42.3-24.5zm-.2 80.3-.2.1c-14.9 8.5-27 1.6-27.1-15.6 0-17.2 12.1-38.2 27-46.8l.3-.1c14.9-8.4 26.9-1.5 27 15.7.1 17.1-12 38-27 46.7z" class="st24"/>
    <path d="m409 244.7-.4.2c-.2.1-.3.2-.5.3V263c.2-.1.3-.2.5-.3l.3-.1c14.9-8.4 26.9-1.5 27 15.7 0 17.1-11.9 37.9-26.8 46.7v17.7c23.4-13.6 42.2-46.3 42.1-73.2 0-27-18.9-37.9-42.2-24.8z" class="st39"/>
    <path d="M435.9 278.1v.6l15.4-9.4v-.1c-.1-26.8-18.9-37.7-42.2-24.5l-.4.2c-.2.1-.3.2-.5.3V263c.2-.1.3-.2.5-.3l.3-.1c14.8-8.5 26.8-1.6 26.9 15.5z" style="fill:#e1e672"/>
    <path d="M403.8 364.8v4.5l-29.4 17.3v-4.5z" class="st24"/>
    <path d="M370.6 384.3c1.1-.6 2-.1 2 1.1s-.9 2.7-1.9 3.4c-1.1.6-2 .1-2-1.1-.1-1.2.8-2.7 1.9-3.4z" class="st20"/>
    <path d="M447.3 339.9v4.5l-29.5 17.3v-4.5z" class="st24"/>
    <path d="M414 359.5c1.1-.6 2-.1 2 1.1s-.9 2.7-1.9 3.4c-1.1.6-2 .1-2-1.1 0-1.3.9-2.8 1.9-3.4z" class="st19"/>
    <path d="M403.8 376v4.5l-29.4 17.3v-4.5z" class="st24"/>
    <path d="M370.6 395.5c1.1-.6 2-.1 2 1.1s-.9 2.7-1.9 3.4c-1.1.6-2 .1-2-1.1-.1-1.3.8-2.7 1.9-3.4z" class="st20"/>
    <path d="M447.3 351.1v4.5l-29.5 17.3v-4.5z" class="st24"/>
    <path d="M414 370.6c1.1-.6 2-.1 2 1.1s-.9 2.7-1.9 3.4c-1.1.6-2 .1-2-1.1s.9-2.7 1.9-3.4z" class="st19"/>
    <path d="M403.8 387.2v4.4L374.4 409v-4.5z" class="st24"/>
    <path d="M370.6 406.7c1.1-.6 2-.1 2 1.1s-.9 2.7-1.9 3.4c-1.1.6-2 .1-2-1.1-.1-1.3.8-2.8 1.9-3.4z" class="st20"/>
    <path d="M447.3 362.3v4.5l-29.5 17.3v-4.5z" class="st24"/>
    <path d="M414 381.8c1.1-.6 2-.1 2 1.1s-.9 2.7-1.9 3.4c-1.1.6-2 .1-2-1.1 0-1.3.9-2.7 1.9-3.4z" class="st19"/>
    <path d="M313.9 262.5c0 3.6-2.5 8-5.7 9.8s-5.7.4-5.7-3.2 2.5-8 5.7-9.8c3.1-1.8 5.7-.4 5.7 3.2z" class="st21"/>
    <path d="M293.9 274.4c0 3.6-2.5 8-5.7 9.8-3.1 1.8-5.7.3-5.7-3.3 0-3.6 2.5-8 5.6-9.8 3.2-1.8 5.8-.3 5.8 3.3z" class="st20"/>
    <path d="M261.6 293.3c0-3.6 2.5-8 5.6-9.8 3.1-1.8 5.7-.4 5.7 3.2s-2.5 8-5.7 9.8c-3.1 1.9-5.6.4-5.6-3.2z" class="st28"/>
    <g id="bluebox">
      <path d="m214.8 302.3-96.6 55.2.2 236.5 96.6-55.3z" class="st17"/>
      <path d="m214.8 302.3-96.6 55.2.2 11.3 96.4-55.1z" style="fill:#473dab"/>
      <path d="m118.2 357.5-1.7-.9.3 236.5 1.6.9" class="st42"/>
      <path d="m116.5 356.6 1.7.9 96.6-55.2-1.6-1z" class="st9"/>
      <path d="M209.5 311.6c0 1.1-.7 2.4-1.7 2.9-.9.5-1.7.1-1.7-1s.7-2.4 1.7-2.9c.9-.5 1.7-.1 1.7 1z" class="st19"/>
      <path d="M203.5 315.1c0 1.1-.7 2.4-1.7 2.9-.9.5-1.7.1-1.7-1s.7-2.4 1.7-2.9 1.7 0 1.7 1z" class="st29"/>
      <path d="M194 320.8c0-1.1.7-2.4 1.7-2.9.9-.5 1.7-.1 1.7 1s-.7 2.4-1.7 2.9-1.7 0-1.7-1z" class="st32"/>
      <path d="m148.1 364.5-9.5 5.5.1 47.4 9.5-5.5z" class="st9"/>
      <path d="m163.6 368.4-9.5 5.5.1 34.5 4.5-2.6 5-2.9z" class="st43"/>
      <path d="m179.2 394-.1-23.4-9.5 5.5.1 23.4 6.4-3.7z" class="st32"/>
      <path d="m194.6 371.3-9.5 5.5v13.8l9.5-5.5zm-4.1 100.6.1 4.6-52 30v-4.6z" class="st9"/>
      <path d="M194.6 469.5c1.1-.6 2-.1 2 1.2s-.9 2.8-2 3.5c-1.1.6-2 .1-2-1.2s.9-2.8 2-3.5z" class="st29"/>
      <path d="m190.5 485.4.1 4.7-52 30v-4.7z" class="st9"/>
      <path d="M194.6 483.1c1.1-.6 2-.1 2 1.2s-.9 2.8-2 3.5c-1.1.6-2 .1-2-1.2s.9-2.8 2-3.5z" class="st29"/>
      <path d="m190.5 499 .1 4.6-52 30V529z" class="st9"/>
      <path d="M194.6 496.7c1.1-.6 2-.1 2 1.2s-.9 2.8-2 3.5c-1.1.6-2 .1-2-1.2s.9-2.9 2-3.5z" class="st32"/>
      <path d="m190.5 512.6.1 4.6-52 30v-4.6z" class="st9"/>
      <path d="M194.6 510.2c1.1-.6 2-.1 2 1.2s-.9 2.8-2 3.5c-1.1.6-2 .1-2-1.2s.9-2.8 2-3.5z" class="st32"/>
      <path d="m190.5 526.1.1 4.7-52 30v-4.7zm4.1-2.3c1.1-.6 2-.1 2 1.2s-.9 2.8-2 3.5c-1.1.6-2 .1-2-1.2s.9-2.9 2-3.5z" class="st9"/>
      <path d="M165.3 424v48.7l-26.7 15.4v-48.6z" class="st43"/>
      <path d="M195.2 407.5v48.7l-26.7 15.4v-48.7z" class="st9"/>
    </g>
  </g>
  <g id="colorlines">
    <path id="line5" d="M640.9 515.3c-1.3-.7-3.3-.8-4.6 0L583 546.2c-.7.4-1 .9-1 1.5s.3 1.1 1 1.5c.6.4 1.5.6 2.3.6s1.6-.2 2.3-.5l53.4-30.9c.7-.4 1-.9 1-1.5-.1-.7-.4-1.2-1.1-1.6zM613 540.7c-1.3-.7-3.3-.8-4.6 0l-17.3 10.1c-.7.4-1 .9-1 1.5s.3 1.1 1 1.5c.6.4 1.5.6 2.3.6s1.6-.2 2.3-.5l17.3-10.1c.7-.4 1-.9 1-1.5 0-.7-.4-1.2-1-1.6zm-7-30.2c-1.3-.7-3.3-.8-4.6 0l-24.1 13.9c-.7.4-1 .9-1 1.5s.3 1.1 1 1.5c.6.4 1.5.6 2.3.6s1.6-.2 2.3-.5l24.1-13.9c.7-.4 1-.9 1-1.5 0-.7-.4-1.2-1-1.6z" style="fill:#cf8fe5"/>
    <path id="line4" d="M752.2 538.6c-1.3-.7-3.3-.8-4.6 0l-55.2 31.9c-.7.4-1 .9-1 1.5s.3 1.1 1 1.5c.6.4 1.5.6 2.3.6s1.6-.2 2.3-.5l55.2-31.9c.7-.4 1-.9 1-1.5 0-.7-.3-1.2-1-1.6zm-111.3-56.7c-1.3-.7-3.3-.8-4.6 0l-24.1 13.9c-.7.4-1 .9-1 1.5s.3 1.1 1 1.5c.6.4 1.5.6 2.3.6s1.6-.2 2.3-.5l24.1-13.9c.7-.4 1-.9 1-1.5 0-.7-.4-1.2-1-1.6zm-90.7 52.5c-1.3-.7-3.3-.8-4.6 0l-24.1 13.9c-.7.4-1 .9-1 1.5s.3 1.1 1 1.5c.6.4 1.5.6 2.3.6s1.6-.2 2.3-.5l24.1-13.9c.7-.4 1-.9 1-1.5 0-.7-.3-1.2-1-1.6zm28.5-16.7c-1.3-.7-3.3-.8-4.6 0l-21.8 12.6c-.7.4-1 .9-1 1.5s.3 1.1 1 1.5c.6.4 1.5.6 2.3.6s1.6-.2 2.3-.5l21.8-12.6c.7-.4 1-.9 1-1.5 0-.7-.4-1.2-1-1.6zm105.1-17.9c-1.3-.7-3.3-.8-4.6 0l-29 16.6c-.7.4-1 .9-1 1.5s.3 1.1 1 1.5c.6.4 1.5.6 2.3.6s1.6-.2 2.3-.5l29-16.6c.7-.4 1-.9 1-1.5 0-.7-.4-1.3-1-1.6zm-11.7 25.4c-1.3-.7-3.3-.8-4.6 0l-38 21.8c-.7.4-1 .9-1 1.5s.3 1.1 1 1.5c.6.4 1.5.6 2.3.6s1.6-.2 2.3-.5l38-21.8c.7-.4 1-.9 1-1.5 0-.7-.3-1.2-1-1.6zm80.1 22.5c-1.3-.7-3.3-.8-4.6 0L700.2 575c-.7.4-1 .9-1 1.5s.3 1.1 1 1.5c.6.4 1.5.6 2.3.6s1.6-.2 2.3-.5l47.4-27.4c.7-.4 1-.9 1-1.5s-.3-1.2-1-1.5zm11 2.6c-1.3-.7-3.3-.8-4.6 0l-51.1 29.5c-.7.4-1 .9-1 1.5s.3 1.1 1 1.5c.6.4 1.5.6 2.3.6s1.6-.2 2.3-.5l51.1-29.5c.7-.4 1-.9 1-1.5 0-.7-.3-1.2-1-1.6zm4 6.3c-1.3-.7-3.3-.8-4.6 0l-47 27.1c-.7.4-1 .9-1 1.5s.3 1.1 1 1.5c.6.4 1.5.6 2.3.6s1.6-.2 2.3-.5l47-27.1c.7-.4 1-.9 1-1.5 0-.7-.4-1.3-1-1.6zM574 528.9c-1.3-.7-3.3-.8-4.6 0l-38 21.8c-.7.4-1 .9-1 1.5s.3 1.1 1 1.5c.6.4 1.5.6 2.3.6s1.6-.2 2.3-.5l38-21.8c.7-.4 1-.9 1-1.5 0-.7-.4-1.2-1-1.6z" style="fill:#d18ee7"/>
    <path id="line3" d="M691 574.5c-1.3-.7-3.3-.8-4.6 0l-46.3 26.8c-.7.4-1 .9-1 1.5s.3 1.1 1 1.5c.6.4 1.5.6 2.3.6s1.6-.2 2.3-.5l46.3-26.8c.7-.4 1-.9 1-1.5 0-.7-.3-1.2-1-1.6zm-80.8-75.4c-1.3-.7-3.3-.8-4.6 0L581.5 513c-.7.4-1 .9-1 1.5s.3 1.1 1 1.5c.6.4 1.5.6 2.3.6s1.6-.2 2.3-.5l24.1-13.9c.7-.4 1-.9 1-1.5 0-.7-.4-1.3-1-1.6zm55.8-23.5c-1.3-.7-3.3-.8-4.6 0L608 506.5c-.7.4-1 .9-1 1.5s.3 1.1 1 1.5c.6.4 1.5.6 2.3.6s1.6-.2 2.3-.5l53.4-30.9c.7-.4 1-.9 1-1.5 0-.7-.4-1.2-1-1.6zm-16.9 44.1c-1.3-.7-3.3-.8-4.6 0L615 536.6c-.7.4-1 .9-1 1.5s.3 1.1 1 1.5c.6.4 1.5.6 2.3.6s1.6-.2 2.3-.5l29.4-16.9c.7-.4 1-.9 1-1.5.1-.7-.3-1.2-.9-1.6zm26.8-24.2c-1.3-.7-3.3-.8-4.6 0l-29 16.6c-.7.4-1 .9-1 1.5s.3 1.1 1 1.5c.6.4 1.5.6 2.3.6s1.6-.2 2.3-.5l29-16.6c.7-.4 1-.9 1-1.5 0-.7-.3-1.2-1-1.6zm27.2 40.7c-1.3-.7-3.3-.8-4.6 0l-89.1 51.3c-.7.4-1 .9-1 1.5s.3 1.1 1 1.5c.6.4 1.5.6 2.3.6s1.6-.2 2.3-.5l89.1-51.3c.7-.4 1-.9 1-1.5 0-.7-.3-1.2-1-1.6zm-105-62c-1.3-.7-3.3-.8-4.6 0l-89.1 51.3c-.7.4-1 .9-1 1.5s.3 1.1 1 1.5c.6.4 1.5.6 2.3.6s1.6-.2 2.3-.5l89.1-51.3c.7-.4 1-.9 1-1.5 0-.7-.3-1.3-1-1.6zm100.8 104.9c-1.3-.7-3.3-.8-4.6 0L648 605.8c-.7.4-1 .9-1 1.5s.3 1.1 1 1.5c.6.4 1.5.6 2.3.6s1.6-.2 2.3-.5l46.3-26.8c.7-.4 1-.9 1-1.5s-.4-1.1-1-1.5zm7.3 4.7c-1.3-.7-3.3-.8-4.6 0l-46.3 26.8c-.7.4-1 .9-1 1.5s.3 1.1 1 1.5c.6.4 1.5.6 2.3.6s1.6-.2 2.3-.5l46.3-26.8c.7-.4 1-.9 1-1.5 0-.7-.4-1.2-1-1.6zm8 3.9c-1.3-.7-3.3-.8-4.6 0l-46.3 26.8c-.7.4-1 .9-1 1.5s.3 1.1 1 1.5c.6.4 1.5.6 2.3.6s1.6-.2 2.3-.5l46.3-26.8c.7-.4 1-.9 1-1.5 0-.7-.3-1.2-1-1.6zm-24.4-100.3c-1.3-.7-3.3-.8-4.6 0l-7.3 4.1c-.7.4-1 .9-1 1.5s.3 1.1 1 1.5c.6.4 1.5.6 2.3.6s1.6-.2 2.3-.5l7.3-4.1c.7-.4 1-.9 1-1.5 0-.7-.3-1.2-1-1.6zm7 4.7c-1.3-.7-3.3-.8-4.6 0l-7.3 4.1c-.7.4-1 .9-1 1.5s.3 1.1 1 1.5c.6.4 1.5.6 2.3.6s1.6-.2 2.3-.5l7.3-4.1c.7-.4 1-.9 1-1.5 0-.7-.4-1.3-1-1.6zm-115.9 58.1c-1.3-.7-3.3-.8-4.6 0l-7.3 4.1c-.7.4-1 .9-1 1.5s.3 1.1 1 1.5c.6.4 1.5.6 2.3.6s1.6-.2 2.3-.5l7.3-4.1c.7-.4 1-.9 1-1.5 0-.7-.3-1.2-1-1.6zm7.7 4.6c-1.3-.7-3.3-.8-4.6 0l-7.3 4.1c-.7.4-1 .9-1 1.5s.3 1.1 1 1.5c.6.4 1.5.6 2.3.6s1.6-.2 2.3-.5l7.3-4.1c.7-.4 1-.9 1-1.5 0-.7-.4-1.3-1-1.6z" style="fill:#67ddcf"/>
    <path id="line2" d="M627.1 551c-1.3-.7-3.3-.8-4.6 0l-38 21.8c-.7.4-1 .9-1 1.5s.3 1.1 1 1.5c.6.4 1.5.6 2.3.6s1.6-.2 2.3-.5l38-21.8c.7-.4 1-.9 1-1.5 0-.7-.4-1.2-1-1.6zm148.4-33.1c-1.3-.7-3.3-.8-4.6 0L611.4 609c-.7.4-1 .9-1 1.5s.3 1.1 1 1.5c.6.4 1.5.6 2.3.6s1.6-.2 2.3-.5L775.5 521c.7-.4 1-.9 1-1.5 0-.7-.3-1.2-1-1.6zm-86.1 17.9c-1.3-.7-3.3-.8-4.6 0l-83.1 47.9c-.7.4-1 .9-1 1.5s.3 1.1 1 1.5c.6.4 1.5.6 2.3.6s1.6-.2 2.3-.5l83.1-47.9c.7-.4 1-.9 1-1.5 0-.7-.3-1.2-1-1.6zm104.2 41.3c-1.3-.7-3.3-.8-4.6 0L705.9 625c-.7.4-1 .9-1 1.5s.3 1.1 1 1.5c.6.4 1.5.6 2.3.6s1.6-.2 2.3-.5l83.1-47.9c.7-.4 1-.9 1-1.5 0-.7-.3-1.2-1-1.6zM584.4 473.8c-1.3-.7-3.3-.8-4.6 0l-83.1 47.9c-.7.4-1 .9-1 1.5s.3 1.1 1 1.5c.6.4 1.5.6 2.3.6s1.6-.2 2.3-.5l83.1-47.9c.7-.4 1-.9 1-1.5 0-.7-.3-1.2-1-1.6zm-16.3-10.4c-1.3-.7-3.3-.8-4.6 0l-83.1 47.9c-.7.4-1 .9-1 1.5s.3 1.1 1 1.5c.6.4 1.5.6 2.3.6s1.6-.2 2.3-.5l83.1-47.9c.7-.4 1-.9 1-1.5 0-.7-.3-1.2-1-1.6zm70.7 36.4c-1.3-.7-3.3-.8-4.6 0l-87.9 50.6c-.7.4-1 .9-1 1.5s.3 1.1 1 1.5c.6.4 1.5.6 2.3.6s1.6-.2 2.3-.5l87.9-50.6c.7-.4 1-.9 1-1.5 0-.7-.4-1.3-1-1.6zm8.2 3.9c-1.3-.7-3.3-.8-4.6 0l-87.9 50.6c-.7.4-1 .9-1 1.5s.3 1.1 1 1.5c.6.4 1.5.6 2.3.6s1.6-.2 2.3-.5l87.9-50.6c.7-.4 1-.9 1-1.5 0-.7-.4-1.2-1-1.6z" style="fill:#e5e972"/>
    <path id="line1" d="M692.2 629c-1.3-.7-3.3-.8-4.6 0l-4.2 2.4c-.7.4-1 .9-1 1.5s.3 1.1 1 1.5c.6.4 1.5.6 2.3.6s1.6-.2 2.3-.5l4.2-2.4c.7-.4 1-.9 1-1.5 0-.7-.3-1.2-1-1.6zm11.3.6c-1.3-.7-3.3-.8-4.6 0l-4.2 2.4c-.7.4-1 .9-1 1.5s.3 1.1 1 1.5c.6.4 1.5.6 2.3.6s1.6-.2 2.3-.5l4.2-2.4c.7-.4 1-.9 1-1.5 0-.7-.3-1.2-1-1.6zm76.3-80.2c-1.3-.7-3.3-.8-4.6 0l-6.4 3.7c-.7.4-1 .9-1 1.5s.3 1.1 1 1.5c.6.4 1.5.6 2.3.6s1.6-.2 2.3-.5l6.4-3.7c.7-.4 1-.9 1-1.5 0-.7-.3-1.2-1-1.6zm-108.7 71c-1.3-.7-3.3-.8-4.6 0l-17.8 10.3c-.7.4-1 .9-1 1.5s.3 1.1 1 1.5c.6.4 1.5.6 2.3.6s1.6-.2 2.3-.5l17.8-10.3c.7-.4 1-.9 1-1.5 0-.7-.3-1.2-1-1.6zM627 594.9c-1.3-.7-3.3-.8-4.6 0l-17.8 10.3c-.7.4-1 .9-1 1.5s.3 1.1 1 1.5c.6.4 1.5.6 2.3.6s1.6-.2 2.3-.5L627 598c.7-.4 1-.9 1-1.5 0-.7-.4-1.2-1-1.6zm-155.8-90.7c-1.3-.7-3.3-.8-4.6 0l-17.8 10.3c-.7.4-1 .9-1 1.5s.3 1.1 1 1.5c.6.4 1.5.6 2.3.6s1.6-.2 2.3-.5l17.8-10.3c.7-.4 1-.9 1-1.5 0-.7-.4-1.2-1-1.6zm50 29.3c-1.3-.7-3.3-.8-4.6 0l-17.8 10.3c-.7.4-1 .9-1 1.5s.3 1.1 1 1.5c.6.4 1.5.6 2.3.6s1.6-.2 2.3-.5l17.8-10.3c.7-.4 1-.9 1-1.5 0-.7-.4-1.2-1-1.6zm6.8 3.9c-1.3-.7-3.3-.8-4.6 0l-17.8 10.3c-.7.4-1 .9-1 1.5s.3 1.1 1 1.5c.6.4 1.5.6 2.3.6s1.6-.2 2.3-.5l17.8-10.3c.7-.4 1-.9 1-1.5 0-.7-.3-1.2-1-1.6zm148.8 87.1c-1.3-.7-3.3-.8-4.6 0l-17.8 10.3c-.7.4-1 .9-1 1.5s.3 1.1 1 1.5c.6.4 1.5.6 2.3.6s1.6-.2 2.3-.5l17.8-10.3c.7-.4 1-.9 1-1.5 0-.7-.4-1.2-1-1.6zm1.2 6.4c-1.3-.7-3.3-.8-4.6 0l-4.2 2.4c-.7.4-1 .9-1 1.5s.3 1.1 1 1.5c.6.4 1.5.6 2.3.6s1.6-.2 2.3-.5l4.2-2.4c.7-.4 1-.9 1-1.5 0-.7-.4-1.2-1-1.6zm-63.8-37c-1.3-.7-3.3-.8-4.6 0l-4.2 2.4c-.7.4-1 .9-1 1.5s.3 1.1 1 1.5c.6.4 1.5.6 2.3.6s1.6-.2 2.3-.5l4.2-2.4c.7-.4 1-.9 1-1.5 0-.7-.3-1.2-1-1.6zm-18.7-10.4c-1.3-.7-3.3-.8-4.6 0l-4.2 2.4c-.7.4-1 .9-1 1.5s.3 1.1 1 1.5c.6.4 1.5.6 2.3.6s1.6-.2 2.3-.5l4.2-2.4c.7-.4 1-.9 1-1.5 0-.7-.3-1.2-1-1.6zm-6.4-4.1c-1.3-.7-3.3-.8-4.6 0l-4.2 2.4c-.7.4-1 .9-1 1.5s.3 1.1 1 1.5c.6.4 1.5.6 2.3.6s1.6-.2 2.3-.5l4.2-2.4c.7-.4 1-.9 1-1.5 0-.7-.4-1.2-1-1.6zm-11.2-6.7c-1.3-.7-3.3-.8-4.6 0l-4.2 2.4c-.7.4-1 .9-1 1.5s.3 1.1 1 1.5c.6.4 1.5.6 2.3.6s1.6-.2 2.3-.5l4.2-2.4c.7-.4 1-.9 1-1.5 0-.7-.4-1.2-1-1.6zm-94.6-55c-1.3-.7-3.3-.8-4.6 0l-4.2 2.4c-.7.4-1 .9-1 1.5s.3 1.1 1 1.5c.6.4 1.5.6 2.3.6s1.6-.2 2.3-.5l4.2-2.4c.7-.4 1-.9 1-1.5 0-.7-.4-1.2-1-1.6zm-10.9-6.3c-1.3-.7-3.3-.8-4.6 0l-4.2 2.4c-.7.4-1 .9-1 1.5s.3 1.1 1 1.5c.6.4 1.5.6 2.3.6s1.6-.2 2.3-.5l4.2-2.4c.7-.4 1-.9 1-1.5 0-.7-.4-1.3-1-1.6zm18 10.6c-1.3-.7-3.3-.8-4.6 0l-4.2 2.4c-.7.4-1 .9-1 1.5s.3 1.1 1 1.5c.6.4 1.5.6 2.3.6s1.6-.2 2.3-.5l4.2-2.4c.7-.4 1-.9 1-1.5 0-.7-.4-1.2-1-1.6zm17.7 10.6c-1.3-.7-3.3-.8-4.6 0l-4.2 2.4c-.7.4-1 .9-1 1.5s.3 1.1 1 1.5c.6.4 1.5.6 2.3.6s1.6-.2 2.3-.5l4.2-2.4c.7-.4 1-.9 1-1.5 0-.7-.4-1.2-1-1.6zm153.2 85.9c-1.3-.7-3.3-.8-4.6 0l-6.4 3.7c-.7.4-1 .9-1 1.5s.3 1.1 1 1.5c.6.4 1.5.6 2.3.6s1.6-.2 2.3-.5l6.4-3.7c.7-.4 1-.9 1-1.5 0-.7-.3-1.2-1-1.6zm-8.1-3.9c-1.3-.7-3.3-.8-4.6 0l-6.4 3.7c-.7.4-1 .9-1 1.5s.3 1.1 1 1.5c.6.4 1.5.6 2.3.6s1.6-.2 2.3-.5l6.4-3.7c.7-.4 1-.9 1-1.5 0-.7-.3-1.2-1-1.6zM776 542.5c-1.3-.7-3.3-.8-4.6 0l-6.4 3.7c-.7.4-1 .9-1 1.5s.3 1.1 1 1.5c.6.4 1.5.6 2.3.6s1.6-.2 2.3-.5l6.4-3.7c.7-.4 1-.9 1-1.5 0-.7-.3-1.2-1-1.6zm-130 67.4c-1.3-.7-3.3-.8-4.6 0l-6.4 3.7c-.7.4-1 .9-1 1.5s.3 1.1 1 1.5c.6.4 1.5.6 2.3.6s1.6-.2 2.3-.5l6.4-3.7c.7-.4 1-.9 1-1.5 0-.7-.4-1.3-1-1.6zm118.8-69.3c-1.3-.7-3.3-.8-4.6 0l-6.4 3.7c-.7.4-1 .9-1 1.5s.3 1.1 1 1.5c.6.4 1.5.6 2.3.6s1.6-.2 2.3-.5l6.4-3.7c.7-.4 1-.9 1-1.5 0-.7-.4-1.2-1-1.6zm-126.7 64.7c-1.3-.7-3.3-.8-4.6 0l-6.4 3.7c-.7.4-1 .9-1 1.5s.3 1.1 1 1.5c.6.4 1.5.6 2.3.6s1.6-.2 2.3-.5l6.4-3.7c.7-.4 1-.9 1-1.5 0-.7-.3-1.2-1-1.6zm127.8-74c-1.3-.7-3.3-.8-4.6 0l-6.4 3.7c-.7.4-1 .9-1 1.5s.3 1.1 1 1.5c.6.4 1.5.6 2.3.6s1.6-.2 2.3-.5l6.4-3.7c.7-.4 1-.9 1-1.5 0-.7-.3-1.2-1-1.6z" style="fill:#ffd17c"/>
  </g>
  <g id="Ph">
    <path d="M264.4 593.8c-4.8 2.7-4.8 7.2-.1 9.9l274 159.2c4.8 2.7 12.5 2.7 17.3 0l142.7-82.3c4.8-2.7 4.8-7.2.1-9.9L424.3 511.5c-4.8-2.7-12.5-2.7-17.3 0l-142.6 82.3z" class="st9"/>
    <path d="m294.7 613.5 222.6 129.3 148.3-85.6L443 527.9z" class="st17"/>
    <path d="M339.5 570.2c1.3.7 3.4.7 4.6 0s1.2-1.9 0-2.6a5.3 5.3 0 0 0-4.6 0c-1.3.7-1.3 1.8 0 2.6zm10.2-7.9c-.9.6-.9 1.4 0 1.9s2.3.5 3.2 0l19.5-11.3c.9-.5.9-1.3 0-1.8s-2.3-.5-3.2 0l-19.5 11.2z" class="st42"/>
    <path d="M618.7 716.4c-5.8 3.3-15.1 3.3-20.9 0-5.7-3.4-5.7-8.8.1-12.1s15.1-3.3 20.9.1c5.7 3.3 5.7 8.7-.1 12z" style="fill:#b9c5f7"/>
    <path d="M617 716.8c-4.9 2.8-12.7 2.8-17.5 0s-4.8-7.3.1-10.1c4.8-2.8 12.7-2.8 17.5.1 4.8 2.7 4.7 7.2-.1 10z" class="st42"/>
    <path d="m555 771.7 143.3-82.8v-.1.1c1.5-.9 2.5-1.9 3.1-3.1.1-.1.1-.2.1-.3.1-.2.1-.3.2-.5 0-.1.1-.2.1-.3.1-.3.1-.5.1-.8v-8.2c0 .3 0 .5-.1.8 0 .1-.1.2-.1.3 0 .2-.1.3-.2.5 0 .1-.1.2-.1.3-.3.5-.6 1.1-1.2 1.5-.3.4-1.2 1-2 1.5L555.6 763l-.6.3c-4.8 2.4-12.1 2.3-16.7-.3l-274-159.3c-2.3-1.4-3.6-3.1-3.6-5v8.2c0 .2 0 .5.1.7.1.7.4 1.3.8 2 .1.2.3.4.4.6l.1.1.4.4c.1.1.2.1.2.2.1.1.3.2.4.3s.2.2.3.2c.1 0 .1.1.2.1.2.1 258.2 150 258.2 150 17.2 10.1 18.1 10.5 19.1 10.8.2.2 5.8 2.9 14.1-.6z" class="st10"/>
    <path d="M439.6 621.9c-.1 6.7-4.4 12.8-12.2 17.2-7.4 4.2-17.1 6.3-26.8 6.3-10 0-20.1-2.2-27.6-6.7-7.7-4.5-11.9-10.7-11.8-17.3.1-6.7 4.4-12.8 12.2-17.2l27.9 17.7h38.3z" class="st28"/>
    <path d="M432.4 589.1a5.3 5.3 0 0 0-4.9 0c-.7.4-1.1 1-1.1 1.6s.4 1.1 1.1 1.6c.7.4 1.6.6 2.5.6s1.7-.2 2.4-.6c.7-.4 1.1-1 1.1-1.6 0-.7-.4-1.2-1.1-1.6z" style="fill:#e34ee6"/>
    <path d="M478.3 563.8a5.5 5.5 0 0 0-5 0l-38.2 21.5c-.7.4-1.1 1-1.1 1.6s.4 1.2 1.1 1.6c.7.4 1.6.6 2.6.6.9 0 1.8-.2 2.5-.6l38.2-21.4c.7-.4 1.1-1 1.1-1.6-.1-.7-.4-1.3-1.2-1.7z" class="st15"/>
    <path d="M441.7 594.6a5.3 5.3 0 0 0-4.9 0c-.7.4-1.1 1-1.1 1.6s.4 1.1 1.1 1.6c.7.4 1.6.6 2.5.6s1.7-.2 2.4-.6c.7-.4 1.1-1 1.1-1.6 0-.6-.4-1.2-1.1-1.6z" style="fill:#76f4f4"/>
    <path d="M487.6 569.4a5.5 5.5 0 0 0-5 0l-38.2 21.5c-.7.4-1.1 1-1.1 1.6s.4 1.2 1.1 1.6c.7.4 1.6.6 2.6.6.9 0 1.8-.2 2.5-.6l38.2-21.4c.7-.4 1.1-1 1.1-1.6-.1-.7-.5-1.3-1.2-1.7z" class="st52"/>
    <path d="M450.8 600.1a5.3 5.3 0 0 0-4.9 0c-.7.4-1.1 1-1.1 1.6s.4 1.1 1.1 1.6c.7.4 1.6.6 2.5.6s1.7-.2 2.4-.6c.7-.4 1.1-1 1.1-1.6-.1-.7-.5-1.2-1.1-1.6z" style="fill:#eff4ae"/>
    <path d="M496.7 574.8a5.5 5.5 0 0 0-5 0l-38.2 21.5c-.7.4-1.1 1-1.1 1.6s.4 1.2 1.1 1.6c.7.4 1.6.6 2.6.6.9 0 1.8-.2 2.5-.6l38.2-21.4c.7-.4 1.1-1 1.1-1.6-.1-.7-.5-1.2-1.2-1.7z" class="st52"/>
    <path d="M439.6 621.9h-38.4l27.9-16.5c6.8 4.5 10.5 10.3 10.5 16.5" style="fill:#fdfdfd"/>
    <path d="m401.2 621.9 27.9-16.5c-.4-.3-.9-.6-1.3-.8-6.5-3.8-14.7-6-23.2-6.6-11.1-.7-22.7 1.3-31.3 6.2l27.9 17.7z" class="st55"/>
    <path d="M424.5 669.9c-2.5 1.4-2.5 3.7 0 5.2l34 19.8c2 1.2 5.3 1.2 7.4 0l54.4-31.3a2.9 2.9 0 0 0 0-5l-34.6-20.2c-1.8-1-4.6-1-6.4 0l-54.8 31.5z" class="st11"/>
    <path d="M482.7 672c-.8-.5-2.2-.5-3 0l-23.1 13c-.4.2-.7.6-.7 1s.2.7.7 1c.4.3 1 .4 1.5.4s1.1-.1 1.5-.4l23.1-13c.4-.2.7-.6.7-1s-.2-.8-.7-1zm10.6.9c-.8-.5-2.2-.5-3 0l-28.4 16c-.4.2-.7.6-.7 1s.2.7.7 1c.4.2 1 .4 1.5.4s1.1-.1 1.5-.4l28.4-16c.4-.2.7-.6.7-1s-.2-.7-.7-1z" class="st56"/>
    <path d="M460.5 654.9c-1.2-.7-3.2-.7-4.5 0l-24.8 14c-.6.4-1 .9-1 1.4s.3 1 1 1.4c.6.4 1.4.6 2.3.5.8 0 1.6-.2 2.2-.5l24.8-14c.6-.4 1-.9 1-1.4 0-.5-.3-1-1-1.4z" style="fill:#8f6bfd"/>
    <path d="m450.4 682.6 3.8-9.2 7.9-.4 4.4-5.2 2-7.4 11.7 2.5V657l3.2-3.6 2.4-7.3" style="fill:none;stroke:#e34ee6;stroke-width:1.4624;stroke-linecap:round;stroke-linejoin:round;stroke-miterlimit:10"/>
    <path d="M491.5 630.5c-2.5 1.4-2.5 3.7 0 5.2l34 19.8c2 1.2 5.3 1.2 7.4 0l54.4-31.3a2.9 2.9 0 0 0 0-5L552.7 599c-1.8-1-4.6-1-6.4 0l-54.8 31.5z" class="st11"/>
    <path d="M551.9 632c-.8-.5-2.2-.5-3 0l-23.1 13c-.4.2-.7.6-.7 1s.2.7.7 1c.4.2 1 .4 1.5.4s1.1-.1 1.5-.4l23.1-13c.4-.2.7-.6.7-1s-.2-.7-.7-1zm10.6 1c-.8-.5-2.2-.5-3 0l-28.4 16c-.4.2-.7.6-.7 1s.2.7.7 1c.4.3 1 .4 1.5.4s1.1-.1 1.5-.4l28.4-16c.4-.2.7-.6.7-1s-.2-.8-.7-1z" class="st56"/>
    <path d="M530 614.9c-1.2-.7-3.2-.7-4.5 0l-24.8 14c-.6.4-1 .9-1 1.4s.3 1 1 1.4c.6.4 1.4.6 2.3.5.8 0 1.6-.2 2.2-.5l24.8-14c.6-.4 1-.9 1-1.4-.1-.6-.4-1.1-1-1.4z" style="opacity:.68;fill:#e34ee6;enable-background:new"/>
    <path d="m515.5 642.8 4.1-2.3 2.1-4.4 8.7-.8-1.6-7.9h8.7l4.7-6.8 7.3-1.9-1-5.1 7.7-1" style="fill:none;stroke:#eff4ae;stroke-width:1.4624;stroke-linecap:round;stroke-linejoin:round;stroke-miterlimit:10"/>
    <path d="M473.5 698.3c-2.5 1.4-2.5 3.7 0 5.2l34 19.8c2 1.2 5.3 1.2 7.4 0l54.4-31.3a2.9 2.9 0 0 0 0-5l-34.6-20.2c-1.8-1-4.6-1-6.4 0l-54.8 31.5z" class="st11"/>
    <path d="M534 699.8c-.8-.5-2.2-.5-3 0l-23.1 13c-.4.2-.7.6-.7 1s.2.7.7 1c.4.2 1 .4 1.5.4s1.1-.1 1.5-.4l23.1-13c.4-.2.7-.6.7-1-.1-.4-.3-.7-.7-1zm10.6 1c-.8-.5-2.2-.5-3 0l-28.4 16c-.4.2-.7.6-.7 1s.2.7.7 1c.4.3 1 .4 1.5.4s1.1-.1 1.5-.4l28.4-16c.4-.2.7-.6.7-1-.1-.4-.3-.8-.7-1z" class="st56"/>
    <path d="M512 682.7c-1.2-.7-3.2-.7-4.5 0l-24.8 14c-.6.4-1 .9-1 1.4s.3 1 1 1.4c.6.4 1.4.6 2.3.5.8 0 1.6-.2 2.2-.5l24.8-14c.6-.4 1-.9 1-1.4 0-.6-.4-1.1-1-1.4z" style="fill:#3852ee"/>
    <path d="m497.8 710.3 5.1-5.5 2.5-6.4 8.5-.4 4.7-5.9.9-6.9 8.2-.5 7.1-1.5.5-5.8" style="fill:none;stroke:#3854f3;stroke-width:1.4624;stroke-linecap:round;stroke-linejoin:round;stroke-miterlimit:10"/>
  </g>
  <g id="block3">
    <path id="path-8_3_" d="M704.9 372.3c5.3-3.1 13.8-3.1 19.1 0l70.7 41c5.3 3.1 5.3 8 0 11l-70.1 40.5c-5.3 3-13.8 3-19.1 0l-70.4-41c-5.3-3.1-5.2-8 0-11.1l69.8-40.4z" class="st39"/>
    <path d="M745 407.6c1.1.6 1.7 1.4 1.7 2.2 0 .9-.6 1.6-1.7 2.2l-32.9 18c-1.1.6-2.5.9-4.1.9s-3-.3-4.1-.9l-22-12c-1.1-.6-1.7-1.4-1.7-2.2 0-.9.6-1.6 1.7-2.2l32.9-18c1.1-.6 2.5-.9 4.1-.9s3 .3 4.1.9l22 12zm-1.4 8.3 1.4.7c1.1.6 1.7 1.4 1.7 2.2 0 .9-.6 1.6-1.7 2.2l-32.9 18c-1.1.6-2.5.9-4.1.9s-3-.3-4.1-.9l-22-12c-1.1-.6-1.7-1.4-1.7-2.2 0-.9.6-1.6 1.7-2.2l1.4-.7 17.8 9.7c1.9 1 4.2 1.5 6.9 1.5s5-.5 6.9-1.5l28.7-15.7zm-42.2-.8c0-.9-.6-1.6-1.7-2.2-1.1-.6-2.5-.9-4.1-.9s-3 .3-4.1.9-1.7 1.4-1.7 2.2c0 .9.6 1.6 1.7 2.2 1.1.6 2.5.9 4.1.9s3-.3 4.1-.9 1.7-1.3 1.7-2.2zm2.4 9 4.1 2.2 30.2-16.5-9.6-5.2h-15.1c-.9 0-1.4.2-1.4.7V418h-6.9c-.9 0-1.4.2-1.4.7v5.4h.1z" class="st9"/>
    <path d="M798.6 419.1c-.1 1.9-1.4 3.8-3.9 5.3l-70.1 40.5c-2.6 1.5-6.1 2.3-9.5 2.3h-.1c-3.4 0-6.8-.8-9.4-2.3l-70.4-41c-2.6-1.5-3.9-3.5-3.9-5.5v17.9l.1 1.5c.4 1.4 1.5 2.8 3.5 3.9L706 483c2.5 1.5 5.8 2.2 9.1 2.2 3.4 0 6.7-.7 9.3-2.2l70.9-40.9c2.8-1.6 3.4-3.3 3.5-5.8l-.2-17.2c0-.1 0-.3 0 0z" class="st24"/>
  </g>
  <g id="block2">
    <path id="path-8_1_" d="M704.9 222.4c5.3-3.1 13.8-3.1 19.1 0l70.7 41c5.3 3.1 5.3 8 0 11L724.5 315c-5.3 3-13.8 3-19.1 0L635 274c-5.3-3.1-5.2-8 0-11.1l69.9-40.5z" class="st28"/>
    <path d="M798.6 269.2c-.1 1.9-1.4 3.8-3.9 5.3L724.5 315c-2.6 1.5-6.1 2.3-9.5 2.3h-.1c-3.4 0-6.8-.8-9.4-2.3l-70.4-41c-2.6-1.5-3.9-3.5-3.9-5.5v17.9l.1 1.5c.4 1.4 1.5 2.8 3.5 3.9l71.1 41.3c2.5 1.5 5.8 2.2 9.1 2.2 3.4 0 6.7-.7 9.3-2.2l70.9-40.9c2.8-1.6 3.4-3.3 3.5-5.8l-.1-17.2c0-.1 0-.3 0 0z" class="st24"/>
    <path d="m704.2 247.6-.1-.2-.1-2.2 5.3-.9 1.9 1.9.1.2c3.3-.1 6.5.3 9.4 1.3l.3-.2 3.2-1.2 3.9 2.2-1.9 1.9-.3.2c1.8 1.6 2.7 3.5 2.6 5.4l.4.1 3.3 1-1.4 3.1H727l-.4-.1c-.7.8-1.7 1.6-2.9 2.3-1.2.7-2.5 1.3-3.9 1.7l.1.2.1 2.2-5.3.9-1.9-1.9-.1-.2c-3.2.1-6.5-.3-9.4-1.3l-.3.2-3.2 1.2-3.9-2.2 1.9-1.9.3-.2c-1.8-1.6-2.7-3.5-2.6-5.4l-.4-.1-3.3-1 1.4-3.1h3.8l.4.1c.7-.8 1.7-1.6 2.9-2.3 1.2-.7 2.5-1.3 3.9-1.7zm14.3 4.5c-3.6-2-9.4-2-13 .2-3.6 2.1-3.5 5.5.1 7.5s9.4 1.9 13-.2c3.5-2.1 3.5-5.5-.1-7.5m7.1 15.8-.1-.3-.1-2.2 5.3-.9 1.9 1.9.1.3c2.6-.1 5.2.3 7.6 1.1l.3-.2 3.2-1.2 3.9 2.2-1.9 1.9-.3.2c1.4 1.3 2.1 2.8 2.1 4.4l.4.1 3.3 1-1.4 3.1h-3.8l-.5-.1c-.6.7-1.4 1.3-2.4 1.9s-2 1-3.1 1.4l.1.3.1 2.2-5.3.9-1.9-1.9-.1-.3c-2.6 0-5.2-.3-7.6-1.1l-.3.2-3.1 1.2-3.9-2.2 1.9-1.9.3-.2a5.94 5.94 0 0 1-2.1-4.4l-.4-.1-3.3-1 1.4-3.1h3.8l.5.1c.6-.7 1.4-1.3 2.4-1.9.9-.6 1.9-1 3-1.4zm12.5 4.2c-2.9-1.6-7.5-1.6-10.4.1-2.8 1.7-2.8 4.4.1 6 2.9 1.6 7.5 1.6 10.4-.1 2.8-1.7 2.8-4.4-.1-6m-48.7-3.8-.1-.3-.1-2.2 5.3-.9 1.9 1.9.1.3c2.6-.1 5.2.3 7.6 1.1l.3-.2 3.2-1.2 3.9 2.2-1.9 1.9-.3.2c1.4 1.3 2.1 2.8 2.1 4.4l.4.1 3.3 1-1.4 3.1h-3.8l-.4-.1c-.6.7-1.4 1.3-2.4 1.9s-2 1-3.2 1.4l.1.3.1 2.2-5.3.9-1.9-1.9-.1-.3c-2.6 0-5.2-.3-7.6-1.1l-.3.2-3.2 1.2-3.9-2.2 1.9-1.9.3-.2a5.94 5.94 0 0 1-2.1-4.4l-.4-.1-3.3-1 1.4-3.1h3.8l.4.1c.6-.7 1.4-1.3 2.4-1.9 1-.5 2-1 3.2-1.4zm12.4 4.3c-2.9-1.6-7.5-1.6-10.4.1s-2.8 4.4.1 6c2.9 1.6 7.5 1.6 10.4-.1 2.8-1.7 2.8-4.4-.1-6" class="st9"/>
  </g>
  <g id="block1">
    <path id="path-8_294_" d="M704.9 76.3c5.3-3.1 13.8-3.1 19.1 0l70.7 41c5.3 3.1 5.3 8 0 11l-70.1 40.5c-5.3 3-13.8 3-19.1 0l-70.4-41c-5.3-3.1-5.2-8 0-11.1l69.8-40.4z" style="opacity:.75;fill:#7b70ff;enable-background:new"/>
    <path d="M798.6 123c-.1 1.9-1.4 3.8-3.9 5.3l-70.1 40.5c-2.6 1.5-6.1 2.3-9.5 2.3h-.1c-3.4 0-6.8-.8-9.4-2.3l-70.4-41c-2.6-1.5-3.9-3.5-3.9-5.5v17.9l.1 1.5c.4 1.4 1.5 2.8 3.5 3.9l71.1 41.3c2.5 1.5 5.8 2.2 9.1 2.2 3.4 0 6.7-.7 9.3-2.2l70.9-40.9c2.8-1.6 3.4-3.3 3.5-5.8l-.2-17.2c0-.1 0-.2 0 0z" class="st24"/>
    <path d="M713.7 93.7c-1.3.8-1.3 2 0 2.8s3.5.8 4.8 0 1.3-2 0-2.8c-1.3-.7-3.5-.7-4.8 0zm-6.4 3.7c-1.3.8-1.3 2 0 2.8s3.5.8 4.8 0 1.3-2 0-2.8c-1.3-.7-3.5-.7-4.8 0zm-2.6 27.4-4.2 8.7 3.4 1.9 15.2-2.3-4-2.3-8.8 1.4 2.4-5.1zm16.1-9.3 4 2.3 8.6-1.5-2.3 5.2 4 2.3 3.8-8.9-3.4-2z" class="st9"/>
    <path d="M714.5 89.6c1-.6 2.3-.6 3.2 0l55.8 32.4-57.8 33.4-55.8-32.4c-1-.6-1-1.3 0-1.9l54.6-31.5zm1.3 62 51.4-29.7-43.1-25-51.4 29.7 43.1 25m-8.5-54.2c-1.3.8-1.3 2 0 2.8s3.5.8 4.8 0 1.3-2 0-2.8c-1.3-.7-3.5-.7-4.8 0m6.4-3.7c-1.3.8-1.3 2 0 2.8s3.5.8 4.8 0 1.3-2 0-2.8c-1.3-.7-3.5-.7-4.8 0" style="fill:#f2f2f4"/>
    <path d="m703.2 120.1 28.7 9.3 3.2-1.8-28.7-9.3z" class="st9"/>
    <path d="M707.3 97.4c-1.3.8-1.3 2 0 2.8s3.5.8 4.8 0 1.3-2 0-2.8c-1.3-.7-3.5-.7-4.8 0" class="st19"/>
    <path d="M713.7 93.7c-1.3.8-1.3 2 0 2.8s3.5.8 4.8 0 1.3-2 0-2.8c-1.3-.7-3.5-.7-4.8 0" class="st55"/>
  </g>
</svg>
